<svg preserveAspectRatio="xMidYMid meet" width="193.066" height="54.326" overflow="visible" style="display: block;" viewBox="0 0 193.066 54.326" fill="none" xmlns="http://www.w3.org/2000/svg">
<g id="Group">
<g id="Group_2">
<path id="Vector" d="M15.8811 0.333559C18.0497 0.333559 19.7318 0.889625 20.8995 2.00172C22.0672 3.11382 22.665 4.79589 22.665 7.0618C22.665 8.2434 22.5398 9.29984 22.2757 10.2173C22.0116 11.1348 21.6084 11.8994 21.0524 12.525C20.4963 13.1505 19.7874 13.6231 18.9394 13.9568C18.0775 14.2904 17.0627 14.4572 15.895 14.4572H11.0435V0.333559H15.895H15.8811ZM16.034 12.8725C16.2425 12.8725 16.5067 12.8586 16.8264 12.8168C17.1461 12.789 17.4797 12.7057 17.8412 12.5806C18.2026 12.4554 18.5501 12.2747 18.8977 12.0384C19.2452 11.8021 19.5649 11.4824 19.843 11.0654C20.121 10.6622 20.3435 10.1478 20.5242 9.53617C20.7049 8.92452 20.7882 8.18779 20.7882 7.31201C20.7882 6.43623 20.7048 5.71336 20.538 5.0461C20.3712 4.37884 20.1071 3.80885 19.7318 3.3501C19.3565 2.87746 18.8699 2.52999 18.2721 2.27977C17.6743 2.02954 16.9515 1.91832 16.0758 1.91832H12.9062V12.8725H16.034Z" fill="var(--fill-0, #1A0B31)"/>
<path id="Vector_2" d="M26.4157 0.333559V14.4572H24.539V0.333559H26.4157Z" fill="var(--fill-0, #1A0B31)"/>
<path id="Vector_3" d="M32.5206 14.4572L27.5579 0.333559H29.5735L33.6049 12.5806H33.6466L37.7197 0.333559H39.6798L34.6614 14.4572H32.5206Z" fill="var(--fill-0, #1A0B31)"/>
<path id="Vector_4" d="M42.6402 0.333559V14.4572H40.7635V0.333559H42.6402Z" fill="var(--fill-0, #1A0B31)"/>
<path id="Vector_5" d="M52.3846 2.25197C51.759 1.79323 50.9527 1.57082 49.9796 1.57082C49.5904 1.57082 49.2012 1.61248 48.812 1.69589C48.4227 1.7793 48.0891 1.90445 47.7972 2.08516C47.5053 2.26588 47.2689 2.51606 47.0882 2.82189C46.9075 3.12771 46.8241 3.51697 46.8241 3.97571C46.8241 4.40665 46.9492 4.7681 47.2133 5.03222C47.4635 5.29634 47.811 5.51874 48.242 5.69945C48.6729 5.86627 49.1595 6.01918 49.7017 6.13039C50.2438 6.2416 50.786 6.36672 51.3559 6.49183C51.912 6.61694 52.468 6.78378 53.0102 6.9506C53.5523 7.13131 54.0388 7.36766 54.4698 7.67349C54.9007 7.97932 55.2343 8.35459 55.4985 8.82723C55.7487 9.28597 55.8877 9.86983 55.8877 10.5649C55.8877 11.3156 55.7209 11.955 55.3872 12.4972C55.0536 13.0254 54.6227 13.4703 54.0944 13.8039C53.5662 14.1375 52.9823 14.3878 52.3289 14.5407C51.6756 14.6936 51.0223 14.7631 50.3828 14.7631C49.5904 14.7631 48.8398 14.6658 48.1447 14.4711C47.4358 14.2765 46.8241 13.9707 46.2819 13.5676C45.7537 13.1645 45.3228 12.6501 45.0169 12.0245C44.7111 11.3989 44.5582 10.6622 44.5582 9.80034H46.3375C46.3375 10.3981 46.4487 10.8985 46.685 11.3294C46.9213 11.7604 47.2133 12.1079 47.5886 12.3859C47.964 12.664 48.4088 12.8725 48.9093 12.9976C49.4097 13.1227 49.924 13.1922 50.4523 13.1922C50.8693 13.1922 51.3003 13.1505 51.7312 13.0671C52.1621 12.9837 52.5514 12.8586 52.885 12.664C53.2326 12.4694 53.5105 12.2192 53.7191 11.8855C53.9276 11.5519 54.0389 11.1349 54.0389 10.6205C54.0389 10.134 53.9137 9.73082 53.6496 9.43889C53.3994 9.13306 53.0518 8.88288 52.6209 8.70217C52.19 8.50755 51.7034 8.35461 51.1613 8.2434C50.6191 8.11829 50.077 8.00707 49.507 7.88196C48.951 7.75685 48.3949 7.61784 47.8528 7.45102C47.3106 7.28421 46.8241 7.07573 46.3931 6.7977C45.9622 6.53358 45.6286 6.17215 45.3645 5.75511C45.1142 5.32417 44.9752 4.79588 44.9752 4.14252C44.9752 3.43356 45.1142 2.80798 45.4061 2.29363C45.6981 1.77929 46.0873 1.34837 46.56 1.01474C47.0465 0.681111 47.5886 0.430919 48.2003 0.264104C48.812 0.0972892 49.4375 0.0138919 50.0909 0.0138919C50.8137 0.0138919 51.481 0.0972892 52.1066 0.264104C52.7321 0.430919 53.2742 0.708968 53.733 1.0704C54.2056 1.44573 54.567 1.90447 54.8451 2.46052C55.1092 3.01657 55.2621 3.68384 55.2899 4.46231H53.5106C53.3994 3.44752 53.0379 2.71071 52.4123 2.25197H52.3846Z" fill="var(--fill-0, #1A0B31)"/>
<path id="Vector_6" d="M59.585 0.333559V14.4572H57.7084V0.333559H59.585Z" fill="var(--fill-0, #1A0B31)"/>
<path id="Vector_7" d="M61.8928 4.61522C62.1708 3.72554 62.6018 2.93316 63.1717 2.25199C63.7417 1.57083 64.4506 1.01479 65.2847 0.611658C66.1327 0.208522 67.1057 0 68.2317 0C69.3578 0 70.3308 0.208522 71.1788 0.611658C72.0268 1.01479 72.7219 1.57083 73.2918 2.25199C73.8618 2.93316 74.2788 3.72554 74.5707 4.61522C74.8488 5.5049 75.0017 6.43629 75.0017 7.39547C75.0017 8.35466 74.8627 9.28604 74.5707 10.1757C74.2927 11.0654 73.8618 11.8578 73.2918 12.5389C72.7219 13.2201 72.0129 13.7622 71.1788 14.1654C70.3447 14.5685 69.3578 14.7631 68.2317 14.7631C67.1057 14.7631 66.1327 14.5685 65.2847 14.1654C64.4367 13.7622 63.7417 13.2201 63.1717 12.5389C62.6018 11.8578 62.1847 11.0654 61.8928 10.1757C61.6147 9.28604 61.4618 8.35466 61.4618 7.39547C61.4618 6.43629 61.6008 5.5049 61.8928 4.61522ZM63.6166 9.49457C63.7973 10.1896 64.0892 10.8151 64.4923 11.3573C64.8815 11.9133 65.3959 12.3582 66.0215 12.6918C66.6471 13.0255 67.3838 13.1923 68.2317 13.1923C69.0797 13.1923 69.8304 13.0255 70.4421 12.6918C71.0537 12.3582 71.5681 11.9133 71.9712 11.3573C72.3604 10.8012 72.6524 10.1757 72.847 9.49457C73.0277 8.79951 73.125 8.10442 73.125 7.38156C73.125 6.65869 73.0277 5.9636 72.847 5.26854C72.6663 4.57348 72.3743 3.94797 71.9712 3.40582C71.582 2.84977 71.0676 2.4049 70.4421 2.07127C69.8165 1.73764 69.0797 1.57085 68.2317 1.57085C67.3838 1.57085 66.6331 1.73764 66.0215 2.07127C65.3959 2.4049 64.8954 2.84977 64.4923 3.40582C64.1031 3.96187 63.8112 4.58738 63.6166 5.26854C63.4359 5.9636 63.3386 6.65869 63.3386 7.38156C63.3386 8.10442 63.4359 8.79951 63.6166 9.49457Z" fill="var(--fill-0, #1A0B31)"/>
<path id="Vector_8" d="M78.7696 0.333559L86.2069 11.7882H86.2485V0.333559H88.0279V14.4572H85.9705L78.5889 3.12772H78.5473V14.4572H76.7679V0.333559H78.7696Z" fill="var(--fill-0, #1A0B31)"/>
<path id="Vector_9" d="M95.2139 4.61522C95.4919 3.72554 95.9228 2.93316 96.4928 2.25199C97.0627 1.57083 97.7717 1.01479 98.6058 0.611658C99.4538 0.208522 100.427 0 101.553 0C102.679 0 103.652 0.208522 104.5 0.611658C105.348 1.01479 106.043 1.57083 106.613 2.25199C107.183 2.93316 107.6 3.72554 107.892 4.61522C108.17 5.5049 108.323 6.43629 108.323 7.39547C108.323 8.35466 108.184 9.28604 107.892 10.1757C107.614 11.0654 107.183 11.8578 106.613 12.5389C106.043 13.2201 105.334 13.7622 104.5 14.1654C103.666 14.5685 102.679 14.7631 101.553 14.7631C100.427 14.7631 99.4538 14.5685 98.6058 14.1654C97.7578 13.7622 97.0627 13.2201 96.4928 12.5389C95.9228 11.8578 95.5058 11.0654 95.2139 10.1757C94.9359 9.28604 94.783 8.35466 94.783 7.39547C94.783 6.43629 94.922 5.5049 95.2139 4.61522ZM96.9516 9.49457C97.1323 10.1896 97.4242 10.8151 97.8273 11.3573C98.2166 11.9133 98.7309 12.3582 99.3564 12.6918C99.982 13.0255 100.719 13.1923 101.567 13.1923C102.415 13.1923 103.165 13.0255 103.777 12.6918C104.389 12.3582 104.903 11.9133 105.306 11.3573C105.695 10.8012 105.987 10.1757 106.182 9.49457C106.363 8.79951 106.46 8.10442 106.46 7.38156C106.46 6.65869 106.363 5.9636 106.182 5.26854C106.001 4.57348 105.709 3.94797 105.306 3.40582C104.917 2.84977 104.403 2.4049 103.777 2.07127C103.151 1.73764 102.415 1.57085 101.567 1.57085C100.719 1.57085 99.9681 1.73764 99.3564 2.07127C98.7309 2.4049 98.2305 2.84977 97.8273 3.40582C97.4381 3.96187 97.1462 4.58738 96.9516 5.26854C96.7708 5.9636 96.6735 6.65869 96.6735 7.38156C96.6735 8.10442 96.7708 8.79951 96.9516 9.49457Z" fill="var(--fill-0, #1A0B31)"/>
<path id="Vector_10" d="M119.388 0.333559V1.91832H111.993V6.4084H118.484V7.99316H111.993V14.4572H110.116V0.333559H119.388Z" fill="var(--fill-0, #1A0B31)"/>
<path id="Vector_11" d="M12.9881 20.1013V34.2249H11.1115V20.1013H12.9881Z" fill="var(--fill-0, #1A0B31)"/>
<path id="Vector_12" d="M17.6454 20.1013L25.0825 31.5559H25.1243V20.1013H26.9036V34.2249H24.8462L17.4647 22.8954H17.4229V34.2249H15.6436V20.1013H17.6454Z" fill="var(--fill-0, #1A0B31)"/>
<path id="Vector_13" d="M34.2995 20.1013C36.4681 20.1013 38.1502 20.6573 39.3179 21.7694C40.4856 22.8815 41.0834 24.5635 41.0834 26.8294C41.0834 28.011 40.9582 29.0676 40.6941 29.985C40.43 30.9025 40.0268 31.6671 39.4708 32.2926C38.9147 32.9182 38.2058 33.3909 37.3578 33.7245C36.496 34.0581 35.4812 34.2249 34.3135 34.2249H29.4619V20.1013H34.3135H34.2995ZM34.4524 32.6401C34.661 32.6401 34.9251 32.6263 35.2448 32.5846C35.5646 32.5568 35.8982 32.4734 36.2596 32.3483C36.621 32.2232 36.9686 32.0424 37.3161 31.8061C37.6636 31.5698 37.9833 31.25 38.2614 30.833C38.5394 30.4299 38.7619 29.9156 38.9426 29.3039C39.1233 28.6922 39.2067 27.9554 39.2067 27.0797C39.2067 26.2039 39.1233 25.481 38.9564 24.8137C38.7896 24.1465 38.5256 23.5766 38.1502 23.1178C37.7749 22.6452 37.2883 22.2976 36.6905 22.0474C36.0928 21.7972 35.37 21.686 34.4942 21.686H31.3247V32.6401H34.4524Z" fill="var(--fill-0, #1A0B31)"/>
<path id="Vector_14" d="M52.7039 33.1962C51.7447 34.0998 50.3684 34.5446 48.5891 34.5446C46.8097 34.5446 45.3501 34.1137 44.3214 33.2518C43.2927 32.3899 42.7922 31.0137 42.7922 29.1232V20.1013H44.669V29.1232C44.669 30.3882 45.0026 31.3474 45.6837 32.0007C46.3649 32.6541 47.324 32.9738 48.5891 32.9738C49.7846 32.9738 50.7021 32.6541 51.3277 32.0007C51.9532 31.3474 52.2729 30.3882 52.2729 29.1232V20.1013H54.1496V29.1232C54.1496 30.9303 53.6631 32.2787 52.7039 33.1823V33.1962Z" fill="var(--fill-0, #1A0B31)"/>
<path id="Vector_15" d="M63.7279 22.0334C63.1023 21.5747 62.2961 21.3523 61.323 21.3523C60.9337 21.3523 60.5445 21.394 60.1552 21.4774C59.766 21.5608 59.4324 21.6859 59.1405 21.8666C58.8485 22.0473 58.6122 22.2976 58.4315 22.6034C58.2508 22.9092 58.1673 23.2984 58.1673 23.7571C58.1673 24.1881 58.2925 24.5495 58.5566 24.8137C58.8068 25.0778 59.1544 25.3003 59.5853 25.481C60.0162 25.6478 60.5028 25.8007 61.0449 25.9119C61.5871 26.0231 62.1292 26.1482 62.6992 26.2733C63.2552 26.3984 63.8113 26.5652 64.3534 26.732C64.8956 26.9128 65.3821 27.1491 65.813 27.4549C66.244 27.7608 66.5776 28.1361 66.8417 28.6088C67.092 29.0675 67.231 29.6513 67.231 30.3464C67.231 31.0971 67.0642 31.7365 66.7306 32.2786C66.3969 32.8069 65.966 33.2517 65.4378 33.5853C64.9095 33.919 64.3256 34.1692 63.6723 34.3221C63.0189 34.4751 62.3655 34.5445 61.7261 34.5445C60.9337 34.5445 60.183 34.4473 59.488 34.2527C58.779 34.058 58.1673 33.7522 57.6252 33.349C57.0969 32.9459 56.666 32.4316 56.3602 31.806C56.0544 31.1805 55.9014 30.4437 55.9014 29.5818H57.6808C57.6808 30.1795 57.792 30.68 58.0284 31.111C58.2647 31.5419 58.5566 31.8894 58.9319 32.1675C59.3072 32.4455 59.7521 32.654 60.2525 32.7791C60.753 32.9042 61.2673 32.9737 61.7956 32.9737C62.2126 32.9737 62.6436 32.932 63.0745 32.8486C63.5055 32.7652 63.8947 32.64 64.2283 32.4454C64.5758 32.2508 64.8539 32.0006 65.0624 31.667C65.2709 31.3333 65.3821 30.9163 65.3821 30.402C65.3821 29.9154 65.257 29.5123 64.9929 29.2204C64.7427 28.9146 64.3952 28.6643 63.9642 28.4836C63.5333 28.289 63.0467 28.1361 62.5045 28.0248C61.9624 27.8997 61.4202 27.7885 60.8503 27.6634C60.2942 27.5383 59.7382 27.3993 59.196 27.2325C58.6539 27.0656 58.1673 26.8572 57.7364 26.5791C57.3055 26.315 56.9719 25.9536 56.7077 25.5365C56.4575 25.1056 56.3185 24.5774 56.3185 23.924C56.3185 23.2151 56.4575 22.5895 56.7495 22.0752C57.0414 21.5608 57.4306 21.1299 57.9032 20.7963C58.3898 20.4626 58.9319 20.2124 59.5436 20.0455C60.1552 19.8787 60.7808 19.7953 61.4342 19.7953C62.1571 19.7953 62.8243 19.8787 63.4498 20.0455C64.0754 20.2124 64.6176 20.4904 65.0763 20.8518C65.549 21.2272 65.9104 21.6859 66.1884 22.242C66.4525 22.798 66.6055 23.4653 66.6333 24.2437H64.8539C64.7426 23.229 64.3812 22.4922 63.7557 22.0334H63.7279Z" fill="var(--fill-0, #1A0B31)"/>
<path id="Vector_16" d="M67.4822 21.686V20.1013H78.77V21.686H74.0574V34.2249H72.1808V21.686H67.4682H67.4822Z" fill="var(--fill-0, #1A0B31)"/>
<path id="Vector_17" d="M86.4839 20.1013C87.8324 20.1013 88.875 20.4349 89.6396 21.0883C90.3902 21.7416 90.7795 22.6452 90.7795 23.799C90.7795 24.6609 90.5849 25.4116 90.1956 26.051C89.8064 26.6905 89.1808 27.1353 88.3328 27.3716V27.4133C88.736 27.4967 89.0696 27.6219 89.3338 27.8026C89.584 27.9833 89.7924 28.2057 89.9453 28.4698C90.0983 28.72 90.2095 29.012 90.279 29.3317C90.3486 29.6514 90.4041 29.9712 90.4459 30.3187C90.4737 30.6662 90.4875 31.0138 90.5014 31.3613C90.5014 31.7227 90.5431 32.0703 90.5987 32.4039C90.6544 32.7375 90.7238 33.0712 90.8211 33.377C90.9184 33.6828 91.0714 33.9608 91.266 34.1971H89.1669C89.0418 34.0581 88.9445 33.8496 88.9027 33.5994C88.861 33.3492 88.8332 33.0712 88.8193 32.7653C88.8193 32.4595 88.7916 32.1258 88.7777 31.7644C88.7777 31.403 88.722 31.0554 88.6525 30.7218C88.5969 30.3743 88.5275 30.0545 88.458 29.7487C88.3746 29.4429 88.2494 29.1649 88.0826 28.9425C87.9158 28.7062 87.6934 28.5254 87.4154 28.3864C87.1374 28.2474 86.7759 28.1779 86.3032 28.1779H81.7158V34.211H79.8392V20.0874H86.4839V20.1013ZM86.8732 26.5098C87.2625 26.4403 87.61 26.3151 87.9158 26.1205C88.2077 25.9259 88.4441 25.6757 88.6248 25.3559C88.8055 25.0362 88.8889 24.6191 88.8889 24.1048C88.8889 23.3958 88.6943 22.812 88.2912 22.3671C87.9019 21.9223 87.2625 21.6999 86.3728 21.6999H81.7019V26.6209H85.6221C86.053 26.6209 86.4701 26.5932 86.8732 26.5237V26.5098Z" fill="var(--fill-0, #1A0B31)"/>
<path id="Vector_18" d="M94.8526 20.1013V34.2249H92.976V20.1013H94.8526Z" fill="var(--fill-0, #1A0B31)"/>
<path id="Vector_19" d="M103.43 20.1013L108.949 34.2249H106.878L105.334 29.9711H99.3569L97.7721 34.2249H95.8538L101.345 20.1013H103.416H103.43ZM104.737 28.4003L102.387 21.8111H102.346L99.9547 28.4003H104.737Z" fill="var(--fill-0, #1A0B31)"/>
<path id="Vector_20" d="M111.715 20.1013V32.6401H119.194V34.2249H109.839V20.1013H111.715Z" fill="var(--fill-0, #1A0B31)"/>
<path id="Vector_21" d="M130.19 20.1013C132.359 20.1013 134.041 20.6573 135.208 21.7694C136.376 22.8815 136.974 24.5635 136.974 26.8294C136.974 28.011 136.849 29.0676 136.585 29.985C136.321 30.9025 135.917 31.6671 135.361 32.2926C134.805 32.9182 134.096 33.3909 133.248 33.7245C132.386 34.0581 131.372 34.2249 130.204 34.2249H125.352V20.1013H130.204H130.19ZM130.343 32.6401C130.552 32.6401 130.816 32.6263 131.135 32.5846C131.455 32.5568 131.789 32.4734 132.15 32.3483C132.512 32.2232 132.859 32.0424 133.207 31.8061C133.554 31.5698 133.874 31.25 134.152 30.833C134.43 30.4299 134.652 29.9156 134.833 29.3039C135.014 28.6922 135.097 27.9554 135.097 27.0797C135.097 26.2039 135.014 25.481 134.847 24.8137C134.68 24.1465 134.416 23.5766 134.041 23.1178C133.665 22.6452 133.179 22.2976 132.581 22.0474C131.983 21.7972 131.26 21.686 130.385 21.686H127.215V32.6401H130.343Z" fill="var(--fill-0, #1A0B31)"/>
<path id="Vector_22" d="M148.526 20.1013V21.686H140.658V26.1761H147.998V27.7608H140.658V32.6401H148.596V34.2249H138.781V20.1013H148.526Z" fill="var(--fill-0, #1A0B31)"/>
<path id="Vector_23" d="M157.436 22.0334C156.811 21.5747 156.005 21.3523 155.031 21.3523C154.642 21.3523 154.253 21.394 153.864 21.4774C153.475 21.5608 153.141 21.6859 152.849 21.8666C152.557 22.0473 152.321 22.2976 152.14 22.6034C151.959 22.9092 151.876 23.2984 151.876 23.7571C151.876 24.1881 152.001 24.5495 152.265 24.8137C152.515 25.0778 152.863 25.3003 153.294 25.481C153.725 25.6478 154.211 25.8007 154.754 25.9119C155.296 26.0231 155.838 26.1482 156.408 26.2733C156.964 26.3984 157.52 26.5652 158.062 26.732C158.604 26.9128 159.091 27.1491 159.522 27.4549C159.953 27.7608 160.286 28.1361 160.55 28.6088C160.801 29.0675 160.94 29.6513 160.94 30.3464C160.94 31.0971 160.773 31.7365 160.439 32.2786C160.105 32.8069 159.675 33.2517 159.146 33.5853C158.618 33.919 158.034 34.1692 157.381 34.3221C156.727 34.4751 156.074 34.5445 155.435 34.5445C154.642 34.5445 153.892 34.4473 153.197 34.2527C152.488 34.058 151.876 33.7522 151.334 33.349C150.806 32.9459 150.375 32.4316 150.069 31.806C149.763 31.1805 149.61 30.4437 149.61 29.5818H151.389C151.389 30.1795 151.501 30.68 151.737 31.111C151.973 31.5419 152.265 31.8894 152.641 32.1675C153.016 32.4455 153.461 32.654 153.961 32.7791C154.462 32.9042 154.976 32.9737 155.504 32.9737C155.921 32.9737 156.352 32.932 156.783 32.8486C157.214 32.7652 157.603 32.64 157.937 32.4454C158.284 32.2508 158.562 32.0006 158.771 31.667C158.979 31.3333 159.091 30.9163 159.091 30.402C159.091 29.9154 158.966 29.5123 158.701 29.2204C158.451 28.9146 158.104 28.6643 157.673 28.4836C157.242 28.289 156.755 28.1361 156.213 28.0248C155.671 27.8997 155.129 27.7885 154.559 27.6634C154.003 27.5383 153.447 27.3993 152.905 27.2325C152.362 27.0656 151.876 26.8572 151.445 26.5791C151.014 26.315 150.68 25.9536 150.416 25.5365C150.166 25.1056 150.027 24.5774 150.027 23.924C150.027 23.2151 150.166 22.5895 150.458 22.0752C150.75 21.5608 151.139 21.1299 151.612 20.7963C152.098 20.4626 152.641 20.2124 153.252 20.0455C153.864 19.8787 154.489 19.7953 155.143 19.7953C155.866 19.7953 156.533 19.8787 157.158 20.0455C157.784 20.2124 158.326 20.4904 158.785 20.8518C159.257 21.2272 159.619 21.6859 159.897 22.242C160.161 22.798 160.314 23.4653 160.342 24.2437H158.562C158.451 23.229 158.09 22.4922 157.464 22.0334H157.436Z" fill="var(--fill-0, #1A0B31)"/>
<path id="Vector_24" d="M164.637 20.1013V34.2249H162.76V20.1013H164.637Z" fill="var(--fill-0, #1A0B31)"/>
<path id="Vector_25" d="M175.815 34.0581C174.995 34.3778 174.175 34.5446 173.341 34.5446C172.284 34.5446 171.339 34.35 170.519 33.9607C169.685 33.5715 168.99 33.0433 168.406 32.3899C167.822 31.7365 167.377 30.972 167.085 30.1101C166.779 29.2482 166.627 28.3585 166.627 27.4411C166.627 26.4124 166.766 25.4393 167.057 24.5079C167.336 23.5765 167.766 22.7702 168.322 22.0613C168.879 21.3662 169.588 20.8102 170.422 20.3931C171.256 19.9761 172.243 19.7675 173.355 19.7675C174.119 19.7675 174.842 19.851 175.523 20.0317C176.205 20.2124 176.802 20.4905 177.344 20.8658C177.873 21.255 178.331 21.7277 178.693 22.3254C179.054 22.9093 179.305 23.6182 179.43 24.4523H177.553C177.456 23.9101 177.289 23.4514 177.039 23.0621C176.788 22.6729 176.483 22.3532 176.107 22.1029C175.732 21.8527 175.315 21.6581 174.856 21.533C174.383 21.4079 173.897 21.3384 173.369 21.3384C172.507 21.3384 171.77 21.5052 171.158 21.8527C170.547 22.2003 170.046 22.6451 169.657 23.2012C169.268 23.7572 168.976 24.3967 168.795 25.1196C168.614 25.8424 168.517 26.5792 168.517 27.3298C168.517 28.0805 168.628 28.7756 168.837 29.4568C169.045 30.1379 169.351 30.7356 169.768 31.25C170.171 31.7643 170.686 32.1814 171.283 32.5011C171.881 32.807 172.576 32.9599 173.369 32.9599C174.105 32.9599 174.759 32.8348 175.329 32.5985C175.899 32.3621 176.371 32.0285 176.761 31.6253C177.15 31.2083 177.442 30.7218 177.636 30.1657C177.831 29.6097 177.914 28.998 177.887 28.3585H173.383V26.7738H179.569V34.211H178.387L177.887 32.4455C177.331 33.1822 176.649 33.7105 175.829 34.0442L175.815 34.0581Z" fill="var(--fill-0, #1A0B31)"/>
<path id="Vector_26" d="M183.807 20.1013L191.245 31.5559H191.286V20.1013H193.066V34.2249H191.008L183.627 22.8954H183.585V34.2249H181.806V20.1013H183.807Z" fill="var(--fill-0, #1A0B31)"/>
<path id="Vector_27" d="M72.1236 52.9638C71.1645 53.8673 69.7882 54.3122 68.0088 54.3122C66.2295 54.3122 64.7698 53.8813 63.7411 53.0194C62.7124 52.1575 62.212 50.7813 62.212 48.8907V39.8688H64.0887V48.8907C64.0887 50.1557 64.4223 51.1149 65.1034 51.7683C65.7846 52.4216 66.7438 52.7414 68.0088 52.7414C69.2043 52.7414 70.1218 52.4216 70.7473 51.7683C71.3729 51.1149 71.6927 50.1557 71.6927 48.8907V39.8688H73.5693V48.8907C73.5693 50.6979 73.0828 52.0463 72.1236 52.9498V52.9638Z" fill="var(--fill-0, #1A0B31)"/>
<path id="Vector_28" d="M81.994 39.8827L87.5128 54.0063H85.4415L83.8985 49.7525H77.9209L76.3362 54.0063H74.4178L79.9088 39.8827H81.9801H81.994ZM83.3007 48.1678L80.9514 41.5786H80.9097L78.5187 48.1678H83.3007Z" fill="var(--fill-0, #1A0B31)"/>
<path id="Vector_29" d="M85.0816 41.4675V39.8827H96.3695V41.4675H91.6569V54.0063H89.7802V41.4675H85.0677H85.0816Z" fill="var(--fill-0, #1A0B31)"/>
<path id="Vector_30" d="M99.3983 39.8827V54.0063H97.5216V39.8827H99.3983Z" fill="var(--fill-0, #1A0B31)"/>
<path id="Vector_31" d="M101.706 44.1644C101.984 43.2747 102.415 42.4823 102.985 41.8011C103.555 41.12 104.264 40.5639 105.098 40.1608C105.946 39.7577 106.919 39.5491 108.045 39.5491C109.171 39.5491 110.144 39.7577 110.992 40.1608C111.84 40.5639 112.535 41.12 113.105 41.8011C113.675 42.4823 114.092 43.2747 114.384 44.1644C114.662 45.0541 114.815 45.9854 114.815 46.9446C114.815 47.9038 114.676 48.8352 114.384 49.7249C114.106 50.6145 113.675 51.4069 113.105 52.088C112.535 52.7692 111.826 53.3114 110.992 53.7145C110.158 54.1177 109.171 54.3123 108.045 54.3123C106.919 54.3123 105.946 54.1177 105.098 53.7145C104.25 53.3114 103.555 52.7692 102.985 52.088C102.415 51.4069 101.998 50.6145 101.706 49.7249C101.428 48.8352 101.275 47.9038 101.275 46.9446C101.275 45.9854 101.414 45.0541 101.706 44.1644ZM103.444 49.0576C103.624 49.7526 103.916 50.3782 104.319 50.9204C104.709 51.4764 105.223 51.9212 105.849 52.2548C106.474 52.5884 107.211 52.7553 108.059 52.7553C108.907 52.7553 109.658 52.5884 110.269 52.2548C110.881 51.9212 111.395 51.4764 111.798 50.9204C112.188 50.3643 112.48 49.7387 112.674 49.0576C112.855 48.3625 112.952 47.6675 112.952 46.9446C112.952 46.2218 112.855 45.5267 112.674 44.8316C112.493 44.1365 112.202 43.5109 111.798 42.9688C111.409 42.4127 110.895 41.968 110.269 41.6343C109.644 41.3007 108.907 41.1338 108.059 41.1338C107.211 41.1338 106.46 41.3007 105.849 41.6343C105.223 41.968 104.723 42.4127 104.319 42.9688C103.93 43.5248 103.638 44.1504 103.444 44.8316C103.263 45.5267 103.166 46.2218 103.166 46.9446C103.166 47.6675 103.263 48.3625 103.444 49.0576Z" fill="var(--fill-0, #1A0B31)"/>
<path id="Vector_32" d="M118.582 39.8827L126.019 51.3373H126.061V39.8827H127.84V54.0063H125.783L118.401 42.6769H118.36V54.0063H116.58V39.8827H118.582Z" fill="var(--fill-0, #1A0B31)"/>
<path id="Vector_33" d="M142.464 41.8149C141.838 41.3562 141.032 41.1337 140.059 41.1337C139.67 41.1337 139.28 41.1754 138.891 41.2588C138.502 41.3422 138.168 41.4674 137.876 41.6481C137.584 41.8288 137.348 42.079 137.167 42.3848C136.987 42.6906 136.903 43.0799 136.903 43.5386C136.903 43.9696 137.028 44.331 137.292 44.5951C137.543 44.8593 137.89 45.0817 138.321 45.2624C138.752 45.4292 139.239 45.5821 139.781 45.6933C140.323 45.8045 140.865 45.9297 141.435 46.0548C141.991 46.1799 142.547 46.3467 143.089 46.5135C143.631 46.6942 144.118 46.9305 144.549 47.2363C144.98 47.5422 145.313 47.9175 145.578 48.3902C145.828 48.8489 145.967 49.4328 145.967 50.1278C145.967 50.8785 145.8 51.518 145.466 52.0601C145.133 52.5884 144.702 53.0332 144.174 53.3668C143.645 53.7005 143.062 53.9506 142.408 54.1036C141.755 54.2565 141.101 54.326 140.462 54.326C139.67 54.326 138.919 54.2287 138.224 54.0341C137.515 53.8394 136.903 53.5336 136.361 53.1304C135.833 52.7273 135.402 52.213 135.096 51.5874C134.79 50.9619 134.637 50.2251 134.637 49.3633H136.417C136.417 49.961 136.528 50.4614 136.764 50.8924C137.001 51.3233 137.292 51.6709 137.668 51.9489C138.043 52.2269 138.488 52.4354 138.988 52.5605C139.489 52.6856 140.003 52.7552 140.531 52.7552C140.948 52.7552 141.379 52.7134 141.81 52.63C142.241 52.5466 142.631 52.4215 142.964 52.2269C143.312 52.0323 143.59 51.7821 143.798 51.4485C144.007 51.1148 144.118 50.6977 144.118 50.1834C144.118 49.6968 143.993 49.2937 143.729 49.0018C143.478 48.696 143.131 48.4457 142.7 48.265C142.269 48.0704 141.783 47.9175 141.24 47.8063C140.698 47.6812 140.156 47.57 139.586 47.4449C139.03 47.3198 138.474 47.1808 137.932 47.014C137.39 46.8471 136.903 46.6386 136.472 46.3605C136.041 46.0964 135.708 45.735 135.444 45.318C135.193 44.887 135.054 44.3588 135.054 43.7054C135.054 42.9965 135.193 42.3709 135.485 41.8566C135.777 41.3422 136.166 40.9113 136.639 40.5777C137.126 40.244 137.668 39.9938 138.279 39.8269C138.891 39.6601 139.517 39.5767 140.17 39.5767C140.893 39.5767 141.56 39.6601 142.186 39.8269C142.811 39.9938 143.353 40.2718 143.812 40.6332C144.285 41.0086 144.646 41.4673 144.924 42.0234C145.188 42.5794 145.341 43.2467 145.369 44.0252H143.59C143.479 43.0104 143.117 42.2736 142.492 41.8149H142.464Z" fill="var(--fill-0, #1A0B31)"/>
<path id="Vector_34" d="M149.596 39.8827V45.9575H157.033V39.8827H158.91V54.0063H157.033V47.5423H149.596V54.0063H147.719V39.8827H149.596Z" fill="var(--fill-0, #1A0B31)"/>
<path id="Vector_35" d="M161.133 44.1644C161.411 43.2747 161.842 42.4823 162.412 41.8011C162.982 41.12 163.691 40.5639 164.525 40.1608C165.373 39.7577 166.346 39.5491 167.472 39.5491C168.598 39.5491 169.571 39.7577 170.419 40.1608C171.267 40.5639 171.963 41.12 172.532 41.8011C173.102 42.4823 173.519 43.2747 173.811 44.1644C174.089 45.0541 174.242 45.9854 174.242 46.9446C174.242 47.9038 174.103 48.8352 173.811 49.7249C173.533 50.6145 173.102 51.4069 172.532 52.088C171.963 52.7692 171.254 53.3114 170.419 53.7145C169.585 54.1177 168.598 54.3123 167.472 54.3123C166.346 54.3123 165.373 54.1177 164.525 53.7145C163.677 53.3114 162.982 52.7692 162.412 52.088C161.842 51.4069 161.425 50.6145 161.133 49.7249C160.855 48.8352 160.702 47.9038 160.702 46.9446C160.702 45.9854 160.841 45.0541 161.133 44.1644ZM162.871 49.0576C163.052 49.7526 163.344 50.3782 163.747 50.9204C164.136 51.4764 164.65 51.9212 165.276 52.2548C165.902 52.5884 166.638 52.7553 167.486 52.7553C168.334 52.7553 169.085 52.5884 169.697 52.2548C170.308 51.9212 170.823 51.4764 171.226 50.9204C171.615 50.3643 171.907 49.7387 172.102 49.0576C172.282 48.3625 172.38 47.6675 172.38 46.9446C172.38 46.2218 172.282 45.5267 172.102 44.8316C171.921 44.1365 171.629 43.5109 171.226 42.9688C170.836 42.4127 170.322 41.968 169.697 41.6343C169.071 41.3007 168.334 41.1338 167.486 41.1338C166.638 41.1338 165.888 41.3007 165.276 41.6343C164.65 41.968 164.15 42.4127 163.747 42.9688C163.358 43.5248 163.066 44.1504 162.871 44.8316C162.69 45.5267 162.593 46.2218 162.593 46.9446C162.593 47.6675 162.69 48.3625 162.871 49.0576Z" fill="var(--fill-0, #1A0B31)"/>
<path id="Vector_36" d="M186.838 54.0063L183.613 42.1347H183.571L180.304 54.0063H178.344L174.73 39.8827H176.648L179.415 51.6293H179.456L182.626 39.8827H184.669L187.797 51.6293H187.839L190.703 39.8827H192.579L188.798 54.0063H186.838Z" fill="var(--fill-0, #1A0B31)"/>
<g id="Group_3">
<path id="Vector_37" d="M22.2181 46.2772C21.5787 46.3189 20.967 46.4718 20.3415 46.6386C19.0209 46.9862 17.7002 47.3754 16.4213 47.7507L15.2814 48.0843C15.1424 48.126 15.0034 48.1678 14.8644 48.1956H14.8087C14.6141 48.2512 14.3917 48.3068 14.2249 48.4458C13.8774 48.7794 13.9608 49.5023 14.0442 50.0166C14.0998 50.3502 14.2388 50.7117 14.4334 51.0453C14.5308 51.2121 14.7114 51.3511 14.92 51.3928C15.1146 51.4345 15.3092 51.4067 15.4621 51.3094C15.8097 51.087 15.9348 50.6422 15.7263 50.2947C15.6845 50.2252 15.6567 50.1556 15.615 50.0861C15.5594 49.9471 15.5177 49.7943 15.4899 49.6413L15.8374 49.544C16.5464 49.3355 17.2554 49.113 17.9783 48.8906C18.4231 48.7516 18.8679 48.6126 19.3266 48.4736C19.9244 48.279 20.55 48.0844 21.1616 47.9037C21.0226 48.3902 20.7307 48.9601 20.2858 49.5718C20.0078 49.961 19.6603 50.3642 19.2989 50.7534C18.6316 51.4485 17.2693 52.63 15.7123 52.6022C15.2953 52.6022 14.92 52.5189 14.5863 52.3798C14.072 52.1574 13.7939 51.8516 13.6688 51.7126C13.1267 51.1149 12.8626 50.2947 12.8487 49.1826C12.8487 48.14 12.9877 47.0974 13.3074 46.1104C13.7106 44.8593 14.35 43.7055 15.2119 42.6768C15.6011 42.2181 16.2128 41.5647 17.0469 41.2449C17.2276 41.1754 17.4639 41.1616 17.5334 41.2728C17.5612 41.3145 17.5612 41.3701 17.5473 41.4257C17.5056 42.0234 17.311 42.635 17.1164 43.2189C16.8245 44.1086 16.5325 45.0261 16.7688 45.9436C16.8106 46.0965 16.8801 46.305 17.0469 46.4579C17.2276 46.6247 17.4917 46.6804 17.6863 46.597C17.8253 46.5414 17.9088 46.444 17.9922 46.3467C18.8401 45.3597 19.6186 44.3033 20.2719 43.2051C20.4526 42.8992 20.6195 42.5517 20.4526 42.2459C20.2719 41.9122 19.7993 41.8149 19.3961 41.7871C19.3961 41.0642 19.3545 40.3414 18.7846 39.8548C18.0895 39.271 17.0051 39.3961 16.2823 39.688C15.5594 39.9799 14.7531 40.3831 13.6966 41.7593C12.3482 43.5108 11.4725 45.5683 11.1388 47.723C10.9998 48.6265 10.9859 49.4189 11.0832 50.1279C11.3473 52.0879 12.7791 53.6309 14.7253 54.0758C14.8921 54.1175 15.059 54.1453 15.2119 54.1592C15.4204 54.1871 15.6428 54.2009 15.8513 54.2009C16.7966 54.2009 17.7558 53.9507 18.6455 53.4503C19.5352 52.9637 20.3415 52.2687 21.1894 51.2678C22.2459 50.0167 22.9688 48.7656 23.3302 47.5422C23.4831 47.0279 23.4275 46.6664 23.1634 46.444C22.8993 46.2216 22.5101 46.2216 22.232 46.2494L22.2181 46.2772Z" fill="var(--fill-0, #7A00DB)"/>
<path id="Vector_38" d="M34.1596 43.3857C34.6739 42.9131 34.9936 42.4821 35.1743 42.0234C35.4246 41.4117 35.3411 40.8557 34.9519 40.383C34.7573 40.1467 34.4932 39.966 34.1596 39.8131C33.6869 39.6046 33.1308 39.4934 32.4357 39.4656C31.4349 39.4239 30.4201 39.5351 29.2941 39.8131C28.6686 39.966 28.0985 40.1467 27.5703 40.3691C27.4035 40.0216 27.0281 39.8269 26.6945 39.8269C26.2775 39.8269 25.9578 40.0772 25.8605 40.4804C25.8049 40.6889 25.7632 40.8974 25.7076 41.1198L25.6658 41.3283C24.8735 41.787 24.1089 42.3153 23.3999 42.9131C23.2331 43.0521 23.1359 43.2745 23.122 43.5247C23.122 43.8028 23.2192 44.053 23.3999 44.2198C23.7753 44.5673 24.2758 44.5673 24.6789 44.2198C24.7762 44.1503 24.8596 44.0669 24.9708 43.9835C24.9847 43.9835 24.9986 43.9556 25.0264 43.9417L25.1515 43.8583C24.5954 47.0417 24.4147 50.2529 24.6093 53.4363C24.6371 54.0202 25.1237 54.3121 25.5685 54.3121C25.5824 54.3121 25.6103 54.3121 25.6242 54.3121C26.0412 54.2843 26.4722 53.9924 26.4305 53.4224C26.3332 51.7126 26.347 49.9193 26.486 48.1121C28.2237 50.9758 30.3089 52.9776 32.6582 54.0619C33.1448 54.2843 33.673 54.1452 33.9232 53.7282C34.0483 53.5058 34.0761 53.2138 33.9927 52.9497C33.9232 52.7134 33.7703 52.5466 33.5757 52.4493C31.3793 51.4345 29.5304 49.6134 27.9178 46.8888C29.2663 46.3606 30.3645 45.8601 31.3654 45.3319C32.6026 44.6785 33.4645 44.0947 34.1873 43.4274L34.1596 43.3857ZM32.1716 42.6629L31.991 42.7879C31.143 43.3996 30.156 43.9417 28.8075 44.5534C28.1681 44.8453 27.4869 45.1233 26.7363 45.4153C26.8614 44.4978 27.0282 43.5664 27.2228 42.6489C27.3062 42.5655 27.3757 42.496 27.4592 42.4404L27.5565 42.3709C27.7372 42.2458 27.9457 42.1207 28.2376 41.9956C29.0995 41.6064 30.0447 41.3422 31.1429 41.2171C31.9631 41.1198 32.6165 41.1476 33.2004 41.3006C33.2977 41.3284 33.3394 41.3561 33.3533 41.3701C33.5479 41.7176 32.5192 42.4404 32.1855 42.6768L32.1716 42.6629Z" fill="var(--fill-0, #7A00DB)"/>
<path id="Vector_39" d="M48.2415 49.5855C48.0747 49.4743 47.8106 49.3492 47.5882 49.377C47.2823 49.4187 47.1016 49.7106 46.9765 50.0025C46.9209 50.1276 46.8653 50.2528 46.8236 50.3779C46.1425 48.4178 45.7949 46.8609 45.7949 45.7627C45.7949 44.873 45.7532 43.9555 45.7115 43.0797C45.6837 42.5932 45.6698 42.1067 45.642 41.6201C45.642 41.4672 45.6281 41.3282 45.6003 41.1753C45.5308 40.7443 45.2945 40.3829 44.9331 40.1188C44.4882 39.8129 43.8905 39.7017 43.2788 39.8268C42.3891 39.9936 41.6106 40.3968 40.8183 41.078C39.7479 42.0093 38.8582 43.0797 38.2048 44.2613C37.5236 45.4707 37.1483 46.4161 36.8703 47.1945C36.8425 47.264 36.8286 47.3197 36.8147 47.3753C36.0362 47.6811 35.3551 48.0703 34.7712 48.5429C34.4515 48.807 34.1596 49.0851 34.243 49.4048C34.2986 49.6272 34.5626 49.8218 34.7851 49.9191C35.1187 50.072 35.4662 50.0442 35.8277 49.8357L36.064 49.6967C36.064 49.6967 36.1474 49.6551 36.1752 49.6273C35.925 50.8506 35.8138 52.0599 35.8277 53.2415C35.8277 53.5057 35.9528 53.7698 36.1474 53.9644C36.3282 54.1313 36.5366 54.2146 36.7729 54.2146C36.7729 54.2146 36.8008 54.2146 36.8147 54.2146C37.3707 54.1868 37.8017 53.7559 37.7878 53.2415C37.7878 52.8384 37.7877 52.4492 37.8155 52.0739C37.8155 51.8654 37.8434 51.6568 37.8573 51.4483C37.8573 51.3649 37.8712 51.2815 37.8851 51.1842V51.073C37.8851 51.073 37.899 51.0174 37.9129 51.0035V50.8783C38.0102 50.3084 38.1492 49.6967 38.3438 48.9739C38.4967 48.7375 38.7331 48.5707 39.0806 48.4595C39.1223 48.4456 39.164 48.4318 39.2057 48.4179L39.2892 48.39C39.2892 48.39 39.3308 48.3761 39.3586 48.3622H39.4003C39.8034 48.2093 40.2066 48.0564 40.6097 47.9035C40.9155 47.7923 41.2214 47.6672 41.5411 47.556C42.1528 47.3336 42.7923 47.0972 43.4456 46.9304C43.6402 46.8748 43.807 46.8887 43.9321 46.9443C44.0989 47.0277 44.1407 47.2084 44.1546 47.2779C45.0165 50.6003 45.2527 51.1981 45.7254 52.3797C46.1424 53.4362 46.5177 53.8949 47.0321 53.9922C47.324 54.0478 47.6021 53.9923 47.9635 53.8115C47.9913 53.8115 48.0191 53.7837 48.0469 53.7698C48.0608 53.7698 48.0747 53.7559 48.0886 53.742L48.1443 53.7142C48.2555 53.603 48.3249 53.5057 48.3388 53.4084C48.3388 53.311 48.3388 53.2276 48.3388 53.1303C48.3388 53.0886 48.3388 53.047 48.3388 53.0052C48.3388 52.8384 48.3388 52.6577 48.3388 52.4909C48.3388 52.06 48.3388 51.6012 48.3666 51.1703C48.3666 50.9757 48.4223 50.7949 48.4779 50.6142C48.5057 50.5308 48.5196 50.4474 48.5474 50.364C48.6169 50.0442 48.5195 49.7801 48.2693 49.5994L48.2415 49.5855ZM43.9182 44.5811C43.9182 44.6784 43.9182 44.7618 43.9043 44.8591C43.8765 45.0955 43.7236 45.2206 43.4456 45.2901C42.6393 45.4708 41.847 45.6932 41.0963 45.9295C40.429 46.138 39.7756 46.3883 39.2335 46.5968C39.8451 44.9008 40.7766 43.5385 42.0555 42.3986C42.3196 42.1623 42.6115 41.9676 42.9174 41.7591C43.0147 41.7035 43.1397 41.634 43.2926 41.634C43.3621 41.634 43.4456 41.634 43.529 41.6757C43.7375 41.7591 43.8487 41.8981 43.8487 42.0927C43.8487 42.3707 43.8766 42.6488 43.8766 42.9268V43.2883L43.9182 44.5533V44.5811Z" fill="var(--fill-0, #7A00DB)"/>
<path id="Vector_40" d="M59.2804 40.7446C58.488 39.9244 57.2509 39.4935 55.7912 39.5352C54.3038 39.5769 53.3028 40.2441 52.3297 40.8975C52.2602 40.9392 50.6616 42.0374 49.7025 43.9002C49.6747 43.9419 49.4661 44.3728 49.48 44.9289C49.48 45.3876 49.7441 45.7212 50.2029 45.8324C50.2307 45.8324 50.2585 45.8463 50.3002 45.8463C50.5921 45.888 50.8423 45.8463 51.0369 45.7351C50.9257 46.3051 50.8423 46.889 50.7867 47.4589C50.7033 48.1957 50.6616 48.7795 50.6616 49.0575C50.6338 49.7665 50.6338 50.3643 50.6616 50.9064C50.6894 51.5042 50.7589 52.0046 50.8562 52.4773C50.745 52.4912 50.6477 52.5329 50.5504 52.5607C50.3141 52.658 50.1473 52.8108 50.0361 53.0333C49.8554 53.4225 49.9387 53.8395 50.2585 54.0898C50.4392 54.2427 50.6616 54.3122 50.9396 54.3122C50.9674 54.3122 50.9952 54.3122 51.023 54.3122C51.5791 54.3122 52.0796 54.1732 52.4688 54.0342C53.8033 53.5893 54.3872 53.1862 54.8181 52.8943C59.2526 49.836 60.0728 46.1105 60.1006 45.9576C60.323 44.8594 60.8512 42.3154 59.3082 40.7168L59.2804 40.7446ZM57.4593 47.2365C57.1952 47.7091 56.9033 48.1679 56.5697 48.5988C55.8607 49.5163 54.9711 50.3365 53.8868 51.115C53.5114 51.3791 53.0804 51.6571 52.5939 51.9351C52.5661 51.5876 52.5522 51.254 52.5522 50.9203V50.8647C52.5522 50.2252 52.5939 49.6136 52.6495 48.988C52.7746 47.6535 53.0109 46.2217 53.3862 44.4423C53.5392 43.7055 53.6921 43.0522 53.845 42.4544C53.845 42.4127 53.8589 42.4128 53.8728 42.3989C54.6374 41.9262 55.3185 41.676 55.9997 41.6204C56.9728 41.537 57.7512 42.0096 58.071 42.8993C58.1822 43.219 58.2517 43.5665 58.2656 43.928C58.3212 45.054 58.0571 46.1383 57.4593 47.2365Z" fill="var(--fill-0, #7A00DB)"/>
</g>
</g>
<path id="Vector (Stroke)" d="M1.81549 0.333612V54.1458H9.23552e-05V0.333612H1.81549Z" fill="var(--fill-0, #1A0B31)"/>
</g>
</svg>
