<svg preserveAspectRatio="xMidYMid meet" width="139.551" height="58.0927" overflow="visible" style="display: block;" viewBox="0 0 139.551 58.0927" fill="none" xmlns="http://www.w3.org/2000/svg">
<g id="Group">
<g id="Group_2">
<path id="Vector" d="M2.49762e-07 55.6347C0.0556054 52.9517 0.514347 50.5885 1.39013 48.5311C2.26591 46.4738 3.41971 44.6249 4.86545 42.9706C6.31118 41.3164 7.92373 39.8151 9.73089 38.4527C11.5381 37.0904 13.3869 35.7698 15.2914 34.5187C17.1959 33.2537 19.0865 31.9748 20.9631 30.6542C22.8398 29.3474 24.5219 27.9434 26.0232 26.442C27.5246 24.9407 28.6366 23.4116 29.3873 21.8407C30.138 20.2699 30.5133 18.4072 30.5133 16.2386C30.5133 14.487 30.1936 12.9301 29.5541 11.5678C28.9147 10.2055 28.039 9.05166 26.9268 8.09248C25.8147 7.13329 24.5358 6.42433 23.0623 5.92388C21.5887 5.43734 20.0318 5.18708 18.3914 5.18708C16.1811 5.18708 14.2905 5.60414 12.7197 6.42431C11.1489 7.24448 9.86994 8.3566 8.89685 9.74673C7.92376 11.1369 7.21484 12.7355 6.77 14.5288C6.32516 16.3359 6.14438 18.2404 6.18608 20.2421H1.32064C1.26503 17.4619 1.58477 14.904 2.27983 12.5547C2.97489 10.2054 4.04529 8.18975 5.49102 6.4938C6.93675 4.79785 8.74398 3.46335 10.9404 2.51806C13.1229 1.55888 15.6946 1.08619 18.6277 1.08619C20.991 1.08619 23.2013 1.40593 25.2308 2.04538C27.2604 2.68484 29.0398 3.64402 30.5551 4.90904C32.0703 6.17405 33.2519 7.75885 34.1138 9.66332C34.9618 11.5678 35.3927 13.778 35.3927 16.3081C35.3927 18.574 35.0173 20.6314 34.2667 22.4802C33.516 24.3291 32.5151 26.0389 31.2501 27.582C29.9851 29.125 28.5533 30.5569 26.9268 31.8636C25.3004 33.1703 23.5905 34.3936 21.7973 35.5335C20.5045 36.4093 18.9892 37.3684 17.2376 38.4249C15.4861 39.4814 13.804 40.6492 12.1775 41.942C10.5511 43.2348 9.13321 44.6389 7.896 46.1541C6.65879 47.6693 5.89415 49.3374 5.57443 51.1307H35.6151V55.6069H0.0139151L2.49762e-07 55.6347Z" fill="var(--fill-0, #1A0B31)"/>
<path id="Vector_2" d="M64.9466 3.69954C67.3932 5.4233 69.2977 7.61969 70.66 10.3026C72.0223 12.9856 72.9537 15.9744 73.4402 19.269C73.9268 22.5635 74.177 25.7887 74.177 28.9303C74.177 32.072 73.9268 35.3666 73.4402 38.6612C72.9537 41.9558 72.0223 44.9446 70.66 47.6275C69.2977 50.3105 67.3932 52.4929 64.9466 54.1889C62.5 55.8848 59.2888 56.7328 55.3269 56.7328C51.3651 56.7328 48.2233 55.8848 45.7489 54.1889C43.2745 52.4929 41.3561 50.2966 39.9938 47.6275C38.6314 44.9446 37.7001 41.9697 37.2135 38.6612C36.727 35.3666 36.4768 32.1415 36.4768 28.9998C36.4768 25.8581 36.727 22.5635 37.2135 19.269C37.7001 15.9744 38.6314 12.9856 39.9938 10.3026C41.3561 7.61969 43.2745 5.4233 45.7489 3.69954C48.2233 1.97579 51.4068 1.11393 55.3269 1.11393C59.2471 1.11393 62.5 1.97579 64.9466 3.69954ZM47.9175 7.59187C46.0686 9.19052 44.6646 11.1784 43.7054 13.5416C42.7462 15.9049 42.1207 18.4905 41.8148 21.2707C41.509 24.051 41.3561 26.5949 41.3561 28.9164C41.3561 31.2379 41.509 33.8513 41.8148 36.6038C42.1207 39.3562 42.7601 41.9279 43.7054 44.3329C44.6507 46.7239 46.0547 48.7257 47.9175 50.3244C49.7664 51.923 52.2408 52.7153 55.3269 52.7153C58.413 52.7153 60.8874 51.923 62.7362 50.3244C64.5851 48.7257 65.9892 46.7378 66.9484 44.3329C67.9076 41.9418 68.5331 39.3701 68.8389 36.6038C69.1447 33.8513 69.2977 31.2935 69.2977 28.9164C69.2977 26.5393 69.1447 24.051 68.8389 21.2707C68.5331 18.4905 67.8937 15.9188 66.9484 13.5416C65.9892 11.1784 64.599 9.19052 62.7362 7.59187C60.8874 5.99323 58.413 5.2009 55.3269 5.2009C52.2408 5.2009 49.7664 5.99323 47.9175 7.59187Z" fill="var(--fill-0, #1A0B31)"/>
</g>
<path id="Vector_3" d="M139.484 33.4622C139.359 32.364 139.025 31.2936 138.428 30.3205C137.037 28.0824 134.646 26.8591 132.047 26.8313C129.642 26.7896 127.418 27.5124 125.277 28.5272C121.287 30.4039 117.868 33.073 114.768 36.159C112.126 38.7864 109.805 41.6639 108.039 44.9585C107.386 43.4571 107.066 42.1366 106.886 41.1774C105.329 32.5586 108.554 22.5775 113.002 15.2793C115.06 11.9013 118.604 6.8969 122.691 5.81261C123.261 5.65969 123.97 5.81258 124.276 6.31303C124.443 6.57715 124.485 6.91082 124.498 7.21664C124.596 10.2054 122.691 13.6946 121.871 16.5443C121.538 17.712 121.218 18.8937 120.954 20.0753C120.842 20.6035 120.703 21.1317 120.717 21.6739C120.717 22.2716 120.759 22.8694 120.759 23.4672C120.842 23.7869 120.981 24.0788 121.162 24.3568C121.704 25.177 122.65 25.7053 123.637 25.7331C124.943 25.7609 125.875 24.9129 126.556 23.8842C127.362 22.6609 128.085 21.382 128.961 20.2004C129.906 18.9214 130.935 17.2533 132.992 13.9309C133.131 13.7224 133.298 13.2914 133.409 12.7354C133.771 10.9143 132.228 9.26011 130.393 9.45472C130.129 9.48253 129.878 9.53811 129.517 9.60762C129.572 9.10717 129.614 8.66233 129.656 8.21749C129.809 6.60495 129.711 5.0202 129.114 3.51887C128.238 1.35027 126.625 0.168725 124.276 0.015811C122.803 -0.0814977 121.426 0.279901 120.106 0.849852C117.881 1.78124 115.977 3.18523 114.225 4.81167C108.832 9.87172 105.857 16.6416 105.495 17.4062C102.799 23.1335 101.033 29.5698 100.797 35.9087C100.644 40.2598 101.464 44.8334 103.813 48.5589C103.799 48.5589 103.786 48.5311 103.772 48.5311C101.784 47.3217 98.0721 45.4451 93.0816 45.0975C89.4811 44.8334 86.5202 45.4729 84.6018 46.0428C84.6435 45.8621 84.6435 45.8065 84.6713 45.7648C84.8242 45.5423 84.991 45.3339 85.1439 45.1114C89.3282 39.6205 93.2901 33.9626 96.5986 27.9017C98.9062 23.6757 100.894 19.3246 102.006 14.6121C102.576 12.235 102.868 9.81617 102.451 7.38345C102.062 5.06195 100.991 3.14355 98.8367 1.97585C97.7663 1.392 96.5986 1.14179 95.3753 1.12789C93.0955 1.08619 90.9964 1.7812 88.9807 2.72649C85.2134 4.50584 81.9745 7.02197 79.0552 9.94123C76.3862 12.5964 74.0647 15.5296 72.3548 18.9215C71.6736 20.2699 71.1732 21.6739 70.9647 23.1752C70.5615 25.9972 71.9933 28.4716 74.6624 29.4586C75.1906 29.6533 75.7606 29.7922 76.414 29.9591C76.261 29.9591 75.6077 31.4187 75.5382 31.5994C75.3157 32.1554 75.1768 32.7949 75.2185 33.4065C75.3019 34.5464 76.1638 35.5195 77.3037 35.7419C78.3602 35.9366 79.1803 35.45 79.8059 34.6438C80.487 33.768 81.0291 32.8922 81.8493 32.0998C83.587 30.4456 85.4081 28.8748 87.2014 27.2761C87.5767 26.9425 88.0076 26.6366 88.3413 26.2613C89.7453 24.6904 88.9668 22.369 86.8955 21.938C86.1448 21.7851 85.4915 22.0353 84.8242 22.355C82.7251 23.3698 80.4037 24.7739 78.0126 24.899C76.3584 24.9824 75.7606 23.6479 76.414 22.23C78.6521 17.3506 82.6278 13.2637 86.8955 10.0942C89.217 8.37046 91.6359 7.04978 94.4856 6.46592C95.1807 6.32691 95.9591 6.34084 96.5291 6.75788C99.0869 8.66235 96.4874 15.3627 95.6672 17.573C93.8183 22.5079 91.2327 27.0815 88.3829 31.5021C84.0457 38.2442 79.0969 44.5554 74.0229 50.7414C73.5224 51.3392 72.9386 51.8674 72.4104 52.4373C71.9238 52.9656 71.3678 53.4522 70.9924 54.0499C70.3113 55.1203 70.492 56.5104 71.4095 57.3862C72.3409 58.2481 73.7449 58.3315 74.7597 57.5808C75.2879 57.1916 75.7328 56.6911 76.2054 56.2463C76.5251 55.9404 76.8171 55.579 77.1785 55.3149C82.3915 51.645 88.1188 49.7822 94.5412 50.5329C97.6551 50.8943 100.352 52.1733 102.507 54.4948C102.757 54.7867 103.035 55.0647 103.327 55.3288C103.98 55.871 104.717 56.1351 105.579 55.9544C106.427 55.7737 107.066 55.2593 107.4 54.5643C107.553 54.2445 107.636 53.8831 107.65 53.4939C108.276 53.9943 109.11 54.5781 110.166 55.1064C110.583 55.3149 111.626 55.8014 113.016 56.1629C114.74 56.6077 116.561 56.6633 118.326 56.4965C122.677 56.0794 126.375 54.0916 129.642 51.2835C129.642 51.2835 129.642 51.2835 129.656 51.2835C132.228 49.0732 134.466 46.4737 136.231 43.5823C138.052 40.6213 139.887 37.0904 139.498 33.5178L139.484 33.4622ZM133.84 35.7837C132.756 39.7177 129.989 43.0819 127.14 45.8899C124.457 48.5311 121.051 50.8943 117.173 51.1306C116.811 51.1584 116.436 51.1584 116.06 51.1306C114.378 51.075 112.891 50.6441 111.598 49.8517C112.099 48.5589 112.724 47.3078 113.461 46.1401C115.935 42.2339 119.133 38.9949 122.844 36.2424C125.138 34.5465 128.655 31.7106 131.727 32.0303C133.812 32.2528 134.313 34.046 133.84 35.7837Z" fill="var(--fill-0, #7A00DB)"/>
</g>
</svg>
