<svg width="419" height="72" viewBox="0 0 419 72" fill="none" xmlns="http://www.w3.org/2000/svg">
<path d="M201.19 2.09668C203.849 2.09668 205.911 2.77852 207.343 4.14214C208.775 5.50577 209.508 7.56829 209.508 10.3467C209.508 11.7955 209.354 13.0909 209.03 14.2159C208.707 15.3409 208.212 16.2785 207.53 17.0455C206.849 17.8125 205.979 18.392 204.94 18.8011C203.883 19.2102 202.638 19.4147 201.207 19.4147H195.258V2.09668H201.207H201.19ZM201.377 17.4716C201.633 17.4716 201.957 17.4545 202.349 17.4034C202.741 17.3693 203.15 17.2671 203.593 17.1136C204.036 16.9602 204.462 16.7386 204.888 16.4489C205.315 16.1591 205.707 15.7671 206.048 15.2558C206.388 14.7614 206.661 14.1307 206.883 13.3807C207.104 12.6307 207.207 11.7273 207.207 10.6535C207.207 9.57963 207.104 8.69326 206.9 7.87509C206.695 7.05691 206.371 6.35799 205.911 5.7955C205.451 5.21595 204.854 4.78989 204.121 4.48307C203.388 4.17626 202.502 4.03988 201.428 4.03988H197.542V17.4716H201.377Z" fill="#FDF7FF"/>
<path d="M214.106 2.09668V19.4147H211.805V2.09668H214.106Z" fill="#FDF7FF"/>
<path d="M221.589 19.4147L215.504 2.09668H217.975L222.919 17.1136H222.97L227.964 2.09668H230.367L224.214 19.4147H221.589Z" fill="#FDF7FF"/>
<path d="M234 2.09668V19.4147H231.699V2.09668H234Z" fill="#FDF7FF"/>
<path d="M245.948 4.44985C245.181 3.88735 244.192 3.61464 242.999 3.61464C242.522 3.61464 242.045 3.66572 241.567 3.76799C241.09 3.87026 240.681 4.02372 240.323 4.24531C239.965 4.4669 239.675 4.77366 239.454 5.14866C239.232 5.52366 239.13 6.00096 239.13 6.56345C239.13 7.09186 239.283 7.53506 239.607 7.85892C239.914 8.18278 240.34 8.45547 240.869 8.67706C241.397 8.88161 241.994 9.0691 242.658 9.20547C243.323 9.34183 243.988 9.49525 244.687 9.64866C245.369 9.80207 246.05 10.0066 246.715 10.2112C247.38 10.4328 247.977 10.7226 248.505 11.0976C249.033 11.4726 249.442 11.9327 249.766 12.5123C250.073 13.0748 250.244 13.7907 250.244 14.6429C250.244 15.5634 250.039 16.3475 249.63 17.0123C249.221 17.66 248.692 18.2055 248.045 18.6145C247.397 19.0236 246.681 19.3305 245.88 19.518C245.079 19.7055 244.278 19.7907 243.494 19.7907C242.522 19.7907 241.602 19.6713 240.749 19.4327C239.88 19.1941 239.13 18.8191 238.465 18.3248C237.817 17.8305 237.289 17.1997 236.914 16.4327C236.539 15.6656 236.352 14.7623 236.352 13.7055H238.533C238.533 14.4384 238.67 15.052 238.959 15.5804C239.249 16.1088 239.607 16.535 240.067 16.8759C240.528 17.2168 241.073 17.4725 241.687 17.6259C242.3 17.7793 242.931 17.8645 243.579 17.8645C244.09 17.8645 244.619 17.8134 245.147 17.7111C245.675 17.6088 246.153 17.4554 246.562 17.2168C246.988 16.9782 247.329 16.6714 247.584 16.2623C247.84 15.8532 247.977 15.3419 247.977 14.7112C247.977 14.1146 247.823 13.6202 247.499 13.2623C247.192 12.8873 246.766 12.5805 246.238 12.3589C245.709 12.1203 245.113 11.9328 244.448 11.7964C243.783 11.643 243.119 11.5066 242.42 11.3532C241.738 11.1998 241.056 11.0293 240.391 10.8248C239.727 10.6203 239.13 10.3646 238.602 10.0237C238.073 9.69985 237.664 9.25667 237.34 8.74531C237.033 8.21691 236.863 7.56912 236.863 6.76799C236.863 5.89868 237.033 5.13161 237.391 4.50093C237.749 3.87025 238.227 3.34187 238.806 2.93278C239.403 2.52369 240.067 2.21691 240.817 2.01237C241.567 1.80783 242.334 1.70557 243.136 1.70557C244.022 1.70557 244.84 1.80783 245.607 2.01237C246.374 2.21691 247.039 2.55785 247.602 3.00103C248.181 3.46126 248.624 4.02375 248.965 4.70557C249.289 5.38738 249.477 6.20556 249.511 7.16011H247.329C247.192 5.91579 246.749 5.01234 245.982 4.44985H245.948Z" fill="#FDF7FF"/>
<path d="M254.778 2.09668V19.4147H252.477V2.09668H254.778Z" fill="#FDF7FF"/>
<path d="M257.605 7.34706C257.945 6.25616 258.474 5.28455 259.173 4.44933C259.872 3.61411 260.741 2.9323 261.764 2.43799C262.803 1.94367 263.997 1.68799 265.377 1.68799C266.758 1.68799 267.951 1.94367 268.991 2.43799C270.031 2.9323 270.883 3.61411 271.582 4.44933C272.281 5.28455 272.792 6.25616 273.15 7.34706C273.491 8.43797 273.678 9.58001 273.678 10.7561C273.678 11.9323 273.508 13.0743 273.15 14.1652C272.809 15.2561 272.281 16.2277 271.582 17.0629C270.883 17.8982 270.014 18.5629 268.991 19.0572C267.968 19.5515 266.758 19.7902 265.377 19.7902C263.997 19.7902 262.803 19.5515 261.764 19.0572C260.724 18.5629 259.872 17.8982 259.173 17.0629C258.474 16.2277 257.963 15.2561 257.605 14.1652C257.264 13.0743 257.076 11.9323 257.076 10.7561C257.076 9.58001 257.247 8.43797 257.605 7.34706ZM259.718 13.33C259.94 14.1823 260.298 14.9493 260.792 15.614C261.269 16.2958 261.9 16.8413 262.667 17.2504C263.434 17.6595 264.338 17.864 265.377 17.864C266.417 17.864 267.338 17.6595 268.088 17.2504C268.838 16.8413 269.468 16.2958 269.963 15.614C270.44 14.9322 270.798 14.1652 271.036 13.33C271.258 12.4777 271.377 11.6254 271.377 10.7391C271.377 9.85272 271.258 9.00041 271.036 8.14815C270.815 7.29588 270.457 6.52889 269.963 5.86412C269.485 5.18231 268.855 4.63682 268.088 4.22773C267.321 3.81864 266.417 3.61412 265.377 3.61412C264.338 3.61412 263.417 3.81864 262.667 4.22773C261.9 4.63682 261.286 5.18231 260.792 5.86412C260.315 6.54594 259.957 7.31292 259.718 8.14815C259.497 9.00041 259.377 9.85272 259.377 10.7391C259.377 11.6254 259.497 12.4777 259.718 13.33Z" fill="#FDF7FF"/>
<path d="M278.3 2.09668L287.42 16.142H287.471V2.09668H289.653V19.4147H287.13L278.079 5.52282H278.028V19.4147H275.846V2.09668H278.3Z" fill="#FDF7FF"/>
<path d="M298.464 7.34706C298.805 6.25616 299.333 5.28455 300.032 4.44933C300.731 3.61411 301.6 2.9323 302.623 2.43799C303.663 1.94367 304.856 1.68799 306.237 1.68799C307.617 1.68799 308.811 1.94367 309.85 2.43799C310.89 2.9323 311.742 3.61411 312.441 4.44933C313.14 5.28455 313.651 6.25616 314.009 7.34706C314.35 8.43797 314.538 9.58001 314.538 10.7561C314.538 11.9323 314.367 13.0743 314.009 14.1652C313.668 15.2561 313.14 16.2277 312.441 17.0629C311.742 17.8982 310.873 18.5629 309.85 19.0572C308.828 19.5515 307.617 19.7902 306.237 19.7902C304.856 19.7902 303.663 19.5515 302.623 19.0572C301.583 18.5629 300.731 17.8982 300.032 17.0629C299.333 16.2277 298.822 15.2561 298.464 14.1652C298.123 13.0743 297.936 11.9323 297.936 10.7561C297.936 9.58001 298.106 8.43797 298.464 7.34706ZM300.595 13.33C300.816 14.1823 301.174 14.9493 301.669 15.614C302.146 16.2958 302.776 16.8413 303.543 17.2504C304.311 17.6595 305.214 17.864 306.254 17.864C307.294 17.864 308.214 17.6595 308.964 17.2504C309.714 16.8413 310.345 16.2958 310.839 15.614C311.316 14.9322 311.674 14.1652 311.913 13.33C312.134 12.4777 312.254 11.6254 312.254 10.7391C312.254 9.85272 312.134 9.00041 311.913 8.14815C311.691 7.29588 311.333 6.52889 310.839 5.86412C310.362 5.18231 309.731 4.63682 308.964 4.22773C308.197 3.81864 307.294 3.61412 306.254 3.61412C305.214 3.61412 304.293 3.81864 303.543 4.22773C302.776 4.63682 302.163 5.18231 301.669 5.86412C301.191 6.54594 300.833 7.31292 300.595 8.14815C300.373 9.00041 300.254 9.85272 300.254 10.7391C300.254 11.6254 300.373 12.4777 300.595 13.33Z" fill="#FDF7FF"/>
<path d="M328.104 2.09668V4.03988H319.036V9.5455H326.996V11.4887H319.036V19.4147H316.734V2.09668H328.104Z" fill="#FDF7FF"/>
<path d="M197.641 26.335V43.653H195.34V26.335H197.641Z" fill="#FDF7FF"/>
<path d="M203.351 26.335L212.47 40.3803H212.521V26.335H214.703V43.653H212.181L203.129 29.761H203.078V43.653H200.896V26.335H203.351Z" fill="#FDF7FF"/>
<path d="M223.772 26.335C226.431 26.335 228.493 27.0167 229.925 28.3803C231.357 29.744 232.09 31.8065 232.09 34.5849C232.09 36.0337 231.936 37.3292 231.613 38.4542C231.289 39.5792 230.794 40.5166 230.112 41.2837C229.431 42.0507 228.561 42.6303 227.522 43.0394C226.465 43.4485 225.221 43.653 223.789 43.653H217.84V26.335H223.789H223.772ZM223.959 41.7098C224.215 41.7098 224.539 41.6928 224.931 41.6417C225.323 41.6076 225.732 41.5053 226.175 41.3519C226.618 41.1985 227.044 40.9769 227.47 40.6871C227.897 40.3974 228.289 40.0053 228.63 39.4939C228.97 38.9996 229.243 38.369 229.465 37.619C229.686 36.869 229.789 35.9655 229.789 34.8917C229.789 33.8178 229.686 32.9314 229.482 32.1133C229.277 31.2951 228.953 30.5963 228.493 30.0338C228.033 29.4542 227.436 29.0281 226.703 28.7213C225.97 28.4144 225.084 28.2781 224.01 28.2781H220.124V41.7098H223.959Z" fill="#FDF7FF"/>
<path d="M246.339 42.3917C245.163 43.4996 243.475 44.045 241.293 44.045C239.112 44.045 237.322 43.5166 236.061 42.4598C234.799 41.403 234.186 39.7156 234.186 37.3974V26.335H236.487V37.3974C236.487 38.9485 236.896 40.1247 237.731 40.9258C238.566 41.7269 239.742 42.1189 241.293 42.1189C242.759 42.1189 243.884 41.7269 244.651 40.9258C245.419 40.1247 245.811 38.9485 245.811 37.3974V26.335H248.112V37.3974C248.112 39.6133 247.515 41.2667 246.339 42.3746V42.3917Z" fill="#FDF7FF"/>
<path d="M259.856 28.7052C259.089 28.1427 258.101 27.87 256.908 27.87C256.43 27.87 255.953 27.9212 255.476 28.0235C254.998 28.1257 254.589 28.2791 254.231 28.5007C253.873 28.7223 253.584 29.0291 253.362 29.4041C253.14 29.7791 253.038 30.2563 253.038 30.8188C253.038 31.3472 253.192 31.7904 253.516 32.1143C253.822 32.4382 254.248 32.7109 254.777 32.9325C255.305 33.1371 255.902 33.3246 256.567 33.4609C257.231 33.5973 257.896 33.7506 258.595 33.904C259.277 34.0574 259.959 34.262 260.623 34.4666C261.288 34.6881 261.885 34.978 262.413 35.353C262.942 35.728 263.351 36.1882 263.675 36.7677C263.981 37.3302 264.152 38.0462 264.152 38.8984C264.152 39.8189 263.947 40.6029 263.538 41.2676C263.129 41.9154 262.601 42.4608 261.953 42.8699C261.305 43.279 260.589 43.5859 259.788 43.7734C258.987 43.9609 258.186 44.046 257.402 44.046C256.43 44.046 255.51 43.9268 254.658 43.6882C253.788 43.4495 253.038 43.0745 252.373 42.5802C251.726 42.0859 251.197 41.4552 250.822 40.6882C250.447 39.9211 250.26 39.0177 250.26 37.9608H252.442C252.442 38.6938 252.578 39.3075 252.868 39.8359C253.158 40.3643 253.515 40.7905 253.976 41.1314C254.436 41.4723 254.981 41.7279 255.595 41.8814C256.209 42.0348 256.839 42.1199 257.487 42.1199C257.998 42.1199 258.527 42.0688 259.055 41.9666C259.584 41.8643 260.061 41.7108 260.47 41.4722C260.896 41.2335 261.237 40.9267 261.493 40.5176C261.748 40.1086 261.885 39.5972 261.885 38.9666C261.885 38.37 261.731 37.8757 261.408 37.5177C261.101 37.1427 260.675 36.8359 260.146 36.6143C259.618 36.3757 259.021 36.1881 258.356 36.0518C257.692 35.8984 257.027 35.762 256.328 35.6086C255.646 35.4552 254.964 35.2847 254.3 35.0802C253.635 34.8756 253.038 34.62 252.51 34.2791C251.981 33.9552 251.572 33.512 251.248 33.0007C250.942 32.4723 250.771 31.8246 250.771 31.0235C250.771 30.1542 250.942 29.3871 251.3 28.7564C251.658 28.1257 252.135 27.5973 252.714 27.1883C253.311 26.7792 253.976 26.4723 254.726 26.2677C255.476 26.0632 256.243 25.9609 257.044 25.9609C257.93 25.9609 258.748 26.0632 259.515 26.2677C260.282 26.4723 260.947 26.8132 261.51 27.2564C262.089 27.7166 262.533 28.2791 262.873 28.9609C263.197 29.6428 263.385 30.4609 263.419 31.4155H261.237C261.101 30.1712 260.658 29.2677 259.89 28.7052H259.856Z" fill="#FDF7FF"/>
<path d="M264.458 28.2781V26.335H278.299V28.2781H272.521V43.653H270.22V28.2781H264.441H264.458Z" fill="#FDF7FF"/>
<path d="M287.759 26.3369C289.412 26.3369 290.691 26.7459 291.628 27.547C292.549 28.3482 293.026 29.4561 293.026 30.8709C293.026 31.9277 292.787 32.8482 292.31 33.6323C291.833 34.4163 291.066 34.9618 290.026 35.2516V35.3027C290.52 35.4049 290.93 35.5584 291.253 35.78C291.56 36.0016 291.816 36.2743 292.003 36.5981C292.191 36.9049 292.327 37.2629 292.412 37.6549C292.498 38.047 292.566 38.4391 292.617 38.8652C292.651 39.2913 292.668 39.7175 292.685 40.1436C292.685 40.5868 292.736 41.0129 292.804 41.422C292.873 41.8311 292.958 42.2402 293.077 42.6152C293.196 42.9902 293.384 43.331 293.623 43.6208H291.049C290.895 43.4504 290.776 43.1947 290.725 42.8879C290.674 42.5811 290.64 42.2402 290.623 41.8652C290.623 41.4902 290.589 41.0811 290.572 40.6379C290.572 40.1947 290.503 39.7686 290.418 39.3595C290.35 38.9333 290.265 38.5413 290.18 38.1663C290.077 37.7913 289.924 37.4504 289.719 37.1777C289.515 36.8879 289.242 36.6663 288.901 36.4959C288.56 36.3254 288.117 36.2402 287.537 36.2402H281.912V43.6379H279.611V26.3198H287.759V26.3369ZM288.236 34.1948C288.714 34.1096 289.14 33.9561 289.515 33.7175C289.873 33.4788 290.162 33.172 290.384 32.78C290.606 32.3879 290.708 31.8765 290.708 31.2459C290.708 30.3765 290.469 29.6606 289.975 29.1152C289.498 28.5697 288.714 28.297 287.623 28.297H281.895V34.3311H286.702C287.231 34.3311 287.742 34.2971 288.236 34.2118V34.1948Z" fill="#FDF7FF"/>
<path d="M298.02 26.335V43.653H295.719V26.335H298.02Z" fill="#FDF7FF"/>
<path d="M308.538 26.335L315.305 43.653H312.765L310.873 38.4371H303.544L301.6 43.653H299.248L305.981 26.335H308.521H308.538ZM310.14 36.511L307.259 28.4315H307.208L304.276 36.511H310.14Z" fill="#FDF7FF"/>
<path d="M318.698 26.335V41.7098H327.868V43.653H316.396V26.335H318.698Z" fill="#FDF7FF"/>
<path d="M341.35 26.335C344.009 26.335 346.071 27.0167 347.503 28.3803C348.935 29.744 349.668 31.8065 349.668 34.5849C349.668 36.0337 349.515 37.3292 349.191 38.4542C348.867 39.5792 348.373 40.5166 347.691 41.2837C347.009 42.0507 346.14 42.6303 345.1 43.0394C344.043 43.4485 342.799 43.653 341.367 43.653H335.418V26.335H341.367H341.35ZM341.537 41.7098C341.793 41.7098 342.117 41.6928 342.509 41.6417C342.901 41.6076 343.31 41.5053 343.753 41.3519C344.196 41.1985 344.623 40.9769 345.049 40.6871C345.475 40.3974 345.867 40.0053 346.208 39.4939C346.549 38.9996 346.821 38.369 347.043 37.619C347.265 36.869 347.367 35.9655 347.367 34.8917C347.367 33.8178 347.265 32.9314 347.06 32.1133C346.856 31.2951 346.532 30.5963 346.071 30.0338C345.611 29.4542 345.015 29.0281 344.282 28.7213C343.549 28.4144 342.662 28.2781 341.588 28.2781H337.702V41.7098H341.537Z" fill="#FDF7FF"/>
<path d="M363.836 26.335V28.2781H354.188V33.7838H363.188V35.7269H354.188V41.7098H363.921V43.653H351.887V26.335H363.836Z" fill="#FDF7FF"/>
<path d="M374.761 28.7052C373.994 28.1427 373.005 27.87 371.812 27.87C371.334 27.87 370.857 27.9212 370.38 28.0235C369.903 28.1257 369.494 28.2791 369.136 28.5007C368.778 28.7223 368.488 29.0291 368.266 29.4041C368.045 29.7791 367.942 30.2563 367.942 30.8188C367.942 31.3472 368.096 31.7904 368.42 32.1143C368.727 32.4382 369.153 32.7109 369.681 32.9325C370.209 33.1371 370.806 33.3246 371.471 33.4609C372.136 33.5973 372.8 33.7506 373.499 33.904C374.181 34.0574 374.863 34.262 375.528 34.4666C376.192 34.6881 376.789 34.978 377.317 35.353C377.846 35.728 378.255 36.1882 378.579 36.7677C378.886 37.3302 379.056 38.0462 379.056 38.8984C379.056 39.8189 378.852 40.6029 378.442 41.2676C378.033 41.9154 377.505 42.4608 376.857 42.8699C376.209 43.279 375.494 43.5859 374.692 43.7734C373.891 43.9609 373.09 44.046 372.306 44.046C371.335 44.046 370.414 43.9268 369.562 43.6882C368.692 43.4495 367.942 43.0745 367.278 42.5802C366.63 42.0859 366.101 41.4552 365.726 40.6882C365.351 39.9211 365.164 39.0177 365.164 37.9608H367.346C367.346 38.6938 367.482 39.3075 367.772 39.8359C368.062 40.3643 368.42 40.7905 368.88 41.1314C369.34 41.4723 369.886 41.7279 370.499 41.8814C371.113 42.0348 371.744 42.1199 372.391 42.1199C372.903 42.1199 373.431 42.0688 373.959 41.9666C374.488 41.8643 374.965 41.7108 375.374 41.4722C375.8 41.2335 376.141 40.9267 376.397 40.5176C376.653 40.1086 376.789 39.5972 376.789 38.9666C376.789 38.37 376.636 37.8757 376.312 37.5177C376.005 37.1427 375.579 36.8359 375.05 36.6143C374.522 36.3757 373.925 36.1881 373.261 36.0518C372.596 35.8984 371.931 35.762 371.232 35.6086C370.55 35.4552 369.869 35.2847 369.204 35.0802C368.539 34.8756 367.942 34.62 367.414 34.2791C366.886 33.9552 366.476 33.512 366.153 33.0007C365.846 32.4723 365.675 31.8246 365.675 31.0235C365.675 30.1542 365.846 29.3871 366.204 28.7564C366.562 28.1257 367.039 27.5973 367.619 27.1883C368.215 26.7792 368.88 26.4723 369.63 26.2677C370.38 26.0632 371.147 25.9609 371.948 25.9609C372.834 25.9609 373.653 26.0632 374.42 26.2677C375.187 26.4723 375.852 26.8132 376.414 27.2564C376.994 27.7166 377.437 28.2791 377.778 28.9609C378.102 29.6428 378.289 30.4609 378.323 31.4155H376.141C376.005 30.1712 375.562 29.2677 374.795 28.7052H374.761Z" fill="#FDF7FF"/>
<path d="M383.59 26.335V43.653H381.289V26.335H383.59Z" fill="#FDF7FF"/>
<path d="M397.294 43.449C396.289 43.841 395.283 44.0455 394.26 44.0455C392.965 44.0455 391.806 43.8069 390.8 43.3296C389.777 42.8524 388.925 42.2046 388.209 41.4035C387.493 40.6024 386.948 39.6648 386.59 38.608C386.215 37.5512 386.027 36.4603 386.027 35.3353C386.027 34.074 386.198 32.8808 386.556 31.7388C386.897 30.5968 387.425 29.6081 388.107 28.7388C388.789 27.8865 389.658 27.2047 390.681 26.6933C391.703 26.182 392.914 25.9263 394.277 25.9263C395.215 25.9263 396.101 26.0285 396.936 26.2501C397.772 26.4717 398.505 26.8127 399.169 27.2729C399.817 27.7502 400.38 28.3297 400.823 29.0627C401.266 29.7786 401.573 30.6478 401.726 31.6706H399.425C399.306 31.0058 399.101 30.4433 398.794 29.966C398.488 29.4887 398.113 29.0967 397.652 28.7899C397.192 28.4831 396.681 28.2445 396.118 28.0911C395.539 27.9377 394.942 27.8524 394.294 27.8524C393.238 27.8524 392.334 28.0569 391.584 28.4831C390.834 28.9092 390.221 29.4547 389.743 30.1365C389.266 30.8183 388.908 31.6024 388.686 32.4888C388.465 33.3752 388.346 34.2785 388.346 35.199C388.346 36.1194 388.482 36.9717 388.738 37.8069C388.993 38.6422 389.368 39.3751 389.88 40.0058C390.374 40.6364 391.005 41.1478 391.738 41.5399C392.47 41.9149 393.323 42.1024 394.294 42.1024C395.198 42.1024 395.999 41.949 396.698 41.6592C397.397 41.3694 397.976 40.9603 398.453 40.466C398.931 39.9547 399.289 39.3581 399.527 38.6763C399.766 37.9945 399.868 37.2444 399.834 36.4603H394.311V34.5172H401.897V43.6364H400.448L399.834 41.4716C399.152 42.375 398.317 43.0228 397.311 43.4319L397.294 43.449Z" fill="#FDF7FF"/>
<path d="M407.095 26.335L416.215 40.3803H416.266V26.335H418.448V43.653H415.925L406.874 29.761H406.822V43.653H404.641V26.335H407.095Z" fill="#FDF7FF"/>
<path d="M270.151 66.6319C268.975 67.7399 267.288 68.2854 265.106 68.2854C262.924 68.2854 261.134 67.757 259.873 66.7001C258.612 65.6433 257.998 63.9558 257.998 61.6376V50.5752H260.299V61.6376C260.299 63.1888 260.708 64.3649 261.543 65.166C262.379 65.9672 263.555 66.3592 265.106 66.3592C266.572 66.3592 267.697 65.9672 268.464 65.166C269.231 64.3649 269.623 63.1888 269.623 61.6376V50.5752H271.924V61.6376C271.924 63.8535 271.328 65.5069 270.151 66.6148V66.6319Z" fill="#FDF7FF"/>
<path d="M282.253 50.5903L289.02 67.9084H286.48L284.588 62.6925H277.258L275.315 67.9084H272.963L279.696 50.5903H282.236H282.253ZM283.855 60.7493L280.974 52.6698H280.923L277.991 60.7493H283.855Z" fill="#FDF7FF"/>
<path d="M286.04 52.5335V50.5903H299.881V52.5335H294.103V67.9084H291.802V52.5335H286.023H286.04Z" fill="#FDF7FF"/>
<path d="M303.594 50.5903V67.9084H301.293V50.5903H303.594Z" fill="#FDF7FF"/>
<path d="M306.425 55.8407C306.766 54.7498 307.294 53.7782 307.993 52.943C308.692 52.1078 309.561 51.426 310.584 50.9316C311.624 50.4373 312.817 50.1816 314.198 50.1816C315.578 50.1816 316.771 50.4373 317.811 50.9316C318.851 51.426 319.703 52.1078 320.402 52.943C321.101 53.7782 321.612 54.7498 321.97 55.8407C322.311 56.9316 322.499 58.0737 322.499 59.2498C322.499 60.4259 322.328 61.568 321.97 62.6589C321.629 63.7498 321.101 64.7213 320.402 65.5565C319.703 66.3917 318.834 67.0566 317.811 67.5509C316.789 68.0452 315.578 68.2838 314.198 68.2838C312.817 68.2838 311.624 68.0452 310.584 67.5509C309.544 67.0566 308.692 66.3917 307.993 65.5565C307.294 64.7213 306.783 63.7498 306.425 62.6589C306.084 61.568 305.896 60.4259 305.896 59.2498C305.896 58.0737 306.067 56.9316 306.425 55.8407ZM308.556 61.8406C308.777 62.6929 309.135 63.46 309.629 64.1247C310.107 64.8066 310.737 65.3519 311.504 65.761C312.271 66.1701 313.175 66.3747 314.215 66.3747C315.254 66.3747 316.175 66.1701 316.925 65.761C317.675 65.3519 318.306 64.8066 318.8 64.1247C319.277 63.4429 319.635 62.6758 319.874 61.8406C320.095 60.9883 320.215 60.1361 320.215 59.2498C320.215 58.3634 320.095 57.5111 319.874 56.6589C319.652 55.8066 319.294 55.0395 318.8 54.3747C318.323 53.6929 317.692 53.1475 316.925 52.7384C316.158 52.3294 315.254 52.1247 314.215 52.1247C313.175 52.1247 312.254 52.3294 311.504 52.7384C310.737 53.1475 310.124 53.6929 309.629 54.3747C309.152 55.0565 308.794 55.8236 308.556 56.6589C308.334 57.5111 308.215 58.3634 308.215 59.2498C308.215 60.1361 308.334 60.9883 308.556 61.8406Z" fill="#FDF7FF"/>
<path d="M327.115 50.5903L336.234 64.6357H336.285V50.5903H338.467V67.9084H335.944L326.893 54.0165H326.842V67.9084H324.66V50.5903H327.115Z" fill="#FDF7FF"/>
<path d="M356.399 52.9612C355.632 52.3987 354.644 52.1259 353.451 52.1259C352.973 52.1259 352.496 52.1771 352.019 52.2793C351.541 52.3816 351.132 52.5351 350.774 52.7566C350.416 52.9782 350.127 53.285 349.905 53.66C349.683 54.035 349.581 54.5123 349.581 55.0748C349.581 55.6032 349.735 56.0464 350.058 56.3703C350.365 56.6941 350.791 56.9668 351.32 57.1884C351.848 57.3929 352.445 57.5804 353.11 57.7168C353.774 57.8532 354.439 58.0066 355.138 58.16C355.82 58.3134 356.502 58.518 357.166 58.7225C357.831 58.9441 358.428 59.2338 358.956 59.6088C359.485 59.9838 359.894 60.4441 360.218 61.0236C360.524 61.5861 360.695 62.302 360.695 63.1543C360.695 64.0747 360.49 64.8588 360.081 65.5236C359.672 66.1713 359.144 66.7168 358.496 67.1259C357.848 67.535 357.132 67.8417 356.331 68.0292C355.53 68.2167 354.729 68.302 353.945 68.302C352.973 68.302 352.053 68.1827 351.2 67.944C350.331 67.7054 349.581 67.3303 348.916 66.836C348.269 66.3417 347.74 65.7111 347.365 64.944C346.99 64.177 346.803 63.2736 346.803 62.2168H348.985C348.985 62.9498 349.121 63.5633 349.411 64.0918C349.701 64.6202 350.058 65.0463 350.519 65.3872C350.979 65.7281 351.524 65.9838 352.138 66.1372C352.752 66.2906 353.382 66.3759 354.03 66.3759C354.541 66.3759 355.07 66.3247 355.598 66.2224C356.127 66.1202 356.604 65.9668 357.013 65.7281C357.439 65.4895 357.78 65.1827 358.036 64.7736C358.291 64.3645 358.428 63.8531 358.428 63.2224C358.428 62.6258 358.274 62.1316 357.95 61.7736C357.644 61.3986 357.217 61.0917 356.689 60.8702C356.161 60.6315 355.564 60.4441 354.899 60.3077C354.235 60.1543 353.57 60.0179 352.871 59.8645C352.189 59.7111 351.507 59.5407 350.842 59.3361C350.178 59.1316 349.581 58.8759 349.053 58.5349C348.524 58.2111 348.115 57.7679 347.791 57.2565C347.485 56.7281 347.314 56.0805 347.314 55.2793C347.314 54.41 347.485 53.6429 347.842 53.0123C348.2 52.3816 348.678 51.8532 349.257 51.4441C349.854 51.035 350.519 50.7281 351.269 50.5236C352.019 50.3191 352.786 50.2168 353.587 50.2168C354.473 50.2168 355.291 50.3191 356.058 50.5236C356.825 50.7281 357.49 51.0691 358.053 51.5123C358.632 51.9725 359.076 52.535 359.416 53.2168C359.74 53.8986 359.928 54.7168 359.962 55.6713H357.78C357.644 54.427 357.201 53.5237 356.433 52.9612H356.399Z" fill="#FDF7FF"/>
<path d="M365.147 50.5903V58.0392H374.266V50.5903H376.567V67.9084H374.266V59.9823H365.147V67.9084H362.846V50.5903H365.147Z" fill="#FDF7FF"/>
<path d="M379.292 55.8407C379.633 54.7498 380.161 53.7782 380.86 52.943C381.559 52.1078 382.428 51.426 383.451 50.9316C384.491 50.4373 385.684 50.1816 387.065 50.1816C388.445 50.1816 389.639 50.4373 390.678 50.9316C391.718 51.426 392.571 52.1078 393.269 52.943C393.968 53.7782 394.48 54.7498 394.838 55.8407C395.178 56.9316 395.366 58.0737 395.366 59.2498C395.366 60.4259 395.195 61.568 394.838 62.6589C394.497 63.7498 393.968 64.7213 393.269 65.5565C392.571 66.3917 391.701 67.0566 390.678 67.5509C389.656 68.0452 388.445 68.2838 387.065 68.2838C385.684 68.2838 384.491 68.0452 383.451 67.5509C382.411 67.0566 381.559 66.3917 380.86 65.5565C380.161 64.7213 379.65 63.7498 379.292 62.6589C378.951 61.568 378.764 60.4259 378.764 59.2498C378.764 58.0737 378.934 56.9316 379.292 55.8407ZM381.423 61.8406C381.644 62.6929 382.002 63.46 382.497 64.1247C382.974 64.8066 383.605 65.3519 384.372 65.761C385.139 66.1701 386.042 66.3747 387.082 66.3747C388.122 66.3747 389.042 66.1701 389.792 65.761C390.542 65.3519 391.173 64.8066 391.667 64.1247C392.144 63.4429 392.502 62.6758 392.741 61.8406C392.963 60.9883 393.082 60.1361 393.082 59.2498C393.082 58.3634 392.963 57.5111 392.741 56.6589C392.519 55.8066 392.161 55.0395 391.667 54.3747C391.19 53.6929 390.559 53.1475 389.792 52.7384C389.025 52.3294 388.122 52.1247 387.082 52.1247C386.042 52.1247 385.122 52.3294 384.372 52.7384C383.605 53.1475 382.991 53.6929 382.497 54.3747C382.019 55.0565 381.661 55.8236 381.423 56.6589C381.201 57.5111 381.082 58.3634 381.082 59.2498C381.082 60.1361 381.201 60.9883 381.423 61.8406Z" fill="#FDF7FF"/>
<path d="M410.809 67.9084L406.855 53.3517H406.804L402.798 67.9084H400.395L395.963 50.5903H398.315L401.707 64.9937H401.758L405.645 50.5903H408.15L411.986 64.9937H412.037L415.548 50.5903H417.849L413.213 67.9084H410.809Z" fill="#FDF7FF"/>
<path d="M208.957 58.4309C208.173 58.4821 207.423 58.6696 206.656 58.8741C205.036 59.3003 203.417 59.7775 201.849 60.2377L200.451 60.6468C200.281 60.6979 200.11 60.7491 199.94 60.7832H199.872C199.633 60.8514 199.36 60.9195 199.156 61.09C198.73 61.4991 198.832 62.3855 198.934 63.0161C199.002 63.4252 199.173 63.8684 199.411 64.2775C199.531 64.482 199.752 64.6525 200.008 64.7036C200.247 64.7547 200.485 64.7207 200.673 64.6013C201.099 64.3286 201.252 63.7832 200.997 63.3571C200.946 63.2718 200.911 63.1866 200.86 63.1013C200.792 62.9309 200.741 62.7435 200.707 62.556L201.133 62.4367C202.002 62.181 202.872 61.9082 203.758 61.6355C204.304 61.465 204.849 61.2946 205.411 61.1241C206.144 60.8855 206.911 60.6469 207.661 60.4253C207.491 61.0219 207.133 61.7207 206.588 62.4707C206.247 62.9479 205.821 63.4423 205.377 63.9196C204.559 64.7719 202.889 66.2206 200.98 66.1866C200.468 66.1866 200.008 66.0843 199.599 65.9139C198.968 65.6411 198.627 65.2662 198.474 65.0957C197.809 64.3628 197.485 63.3571 197.468 61.9935C197.468 60.7151 197.639 59.4366 198.031 58.2264C198.525 56.6923 199.309 55.2776 200.366 54.0162C200.843 53.4537 201.593 52.6526 202.616 52.2605C202.838 52.1753 203.127 52.1583 203.213 52.2946C203.247 52.3458 203.247 52.4139 203.23 52.4821C203.179 53.2151 202.94 53.965 202.701 54.6809C202.343 55.7718 201.985 56.8969 202.275 58.0219C202.326 58.2094 202.411 58.465 202.616 58.6525C202.838 58.8571 203.161 58.9253 203.4 58.823C203.571 58.7549 203.673 58.6355 203.775 58.5161C204.815 57.3059 205.769 56.0106 206.57 54.664C206.792 54.289 206.997 53.8628 206.792 53.4878C206.57 53.0787 205.991 52.9594 205.497 52.9253C205.497 52.0389 205.446 51.1526 204.747 50.556C203.894 49.8401 202.565 49.9935 201.678 50.3514C200.792 50.7094 199.803 51.2037 198.508 52.8912C196.855 55.0389 195.781 57.5617 195.372 60.2037C195.201 61.3117 195.184 62.2832 195.303 63.1525C195.627 65.5559 197.383 67.4479 199.769 67.9934C199.974 68.0445 200.179 68.0787 200.366 68.0957C200.622 68.1298 200.894 68.1468 201.15 68.1468C202.309 68.1468 203.485 67.84 204.576 67.2264C205.667 66.6298 206.656 65.7775 207.696 64.5503C208.991 63.0162 209.877 61.4821 210.321 59.9821C210.508 59.3514 210.44 58.9082 210.116 58.6355C209.792 58.3627 209.315 58.3628 208.974 58.3969L208.957 58.4309Z" fill="#D1BADA"/>
<path d="M223.599 54.8856C224.229 54.306 224.621 53.7776 224.843 53.2151C225.15 52.4651 225.047 51.7833 224.57 51.2037C224.331 50.914 224.008 50.6924 223.599 50.5049C223.019 50.2492 222.337 50.1129 221.485 50.0788C220.258 50.0276 219.013 50.164 217.633 50.5049C216.866 50.6924 216.167 50.9139 215.519 51.1867C215.314 50.7605 214.854 50.5219 214.445 50.5219C213.934 50.5219 213.542 50.8287 213.422 51.3231C213.354 51.5787 213.303 51.8345 213.235 52.1072L213.184 52.3628C212.212 52.9253 211.275 53.573 210.405 54.306C210.201 54.4764 210.081 54.7492 210.064 55.056C210.064 55.3969 210.184 55.7037 210.405 55.9083C210.866 56.3344 211.479 56.3344 211.974 55.9083C212.093 55.823 212.195 55.7208 212.331 55.6185C212.348 55.6185 212.366 55.5844 212.4 55.5673L212.553 55.4651C211.871 59.3685 211.65 63.306 211.888 67.2094C211.922 67.9253 212.519 68.2832 213.064 68.2832C213.081 68.2832 213.116 68.2832 213.133 68.2832C213.644 68.2491 214.172 67.8911 214.121 67.1923C214.002 65.0957 214.019 62.8968 214.189 60.6809C216.32 64.1923 218.877 66.6469 221.758 67.9764C222.354 68.2491 223.002 68.0786 223.309 67.5672C223.462 67.2945 223.496 66.9366 223.394 66.6127C223.309 66.3229 223.121 66.1184 222.883 65.9991C220.189 64.7548 217.922 62.5218 215.945 59.1809C217.598 58.5332 218.945 57.9196 220.172 57.2719C221.689 56.4707 222.746 55.7548 223.633 54.9367L223.599 54.8856ZM221.161 53.9992L220.939 54.1525C219.9 54.9025 218.689 55.5673 217.036 56.3173C216.252 56.6753 215.417 57.0162 214.496 57.3741C214.65 56.2491 214.854 55.1071 215.093 53.9821C215.195 53.8799 215.28 53.7946 215.383 53.7264L215.502 53.6412C215.724 53.4878 215.979 53.3345 216.337 53.181C217.394 52.7038 218.553 52.3798 219.9 52.2264C220.905 52.1071 221.707 52.1413 222.422 52.3288C222.542 52.3629 222.593 52.3969 222.61 52.414C222.849 52.8401 221.587 53.7265 221.178 54.0163L221.161 53.9992Z" fill="#D1BADA"/>
<path d="M240.864 62.4872C240.659 62.3509 240.336 62.1975 240.063 62.2316C239.688 62.2828 239.466 62.6406 239.313 62.9986C239.245 63.152 239.177 63.3054 239.125 63.4588C238.29 61.0554 237.864 59.1464 237.864 57.7998C237.864 56.7089 237.813 55.5839 237.762 54.51C237.728 53.9134 237.711 53.3169 237.677 52.7203C237.677 52.5328 237.66 52.3623 237.625 52.1748C237.54 51.6464 237.25 51.2032 236.807 50.8794C236.262 50.5044 235.529 50.368 234.779 50.5214C233.688 50.7259 232.733 51.2203 231.762 52.0555C230.449 53.1975 229.358 54.51 228.557 55.9588C227.722 57.4418 227.262 58.6009 226.921 59.5555C226.887 59.6407 226.87 59.7089 226.853 59.7771C225.898 60.1521 225.063 60.6293 224.347 61.2088C223.955 61.5327 223.597 61.8736 223.699 62.2656C223.768 62.5384 224.091 62.777 224.364 62.8963C224.773 63.0838 225.199 63.0497 225.642 62.794L225.932 62.6236C225.932 62.6236 226.034 62.5725 226.069 62.5384C225.762 64.0384 225.625 65.5213 225.642 66.9702C225.642 67.294 225.796 67.6179 226.035 67.8566C226.256 68.0611 226.512 68.1634 226.802 68.1634C226.802 68.1634 226.836 68.1634 226.853 68.1634C227.535 68.1293 228.063 67.6009 228.046 66.9702C228.046 66.4759 228.046 65.9987 228.08 65.5384C228.08 65.2827 228.114 65.027 228.131 64.7714C228.131 64.6691 228.148 64.5668 228.165 64.4475V64.3111C228.165 64.3111 228.182 64.2429 228.199 64.2259V64.0724C228.319 63.3736 228.489 62.6236 228.728 61.7372C228.915 61.4475 229.205 61.2429 229.631 61.1066C229.682 61.0895 229.733 61.0725 229.784 61.0555L229.887 61.0214C229.887 61.0214 229.938 61.0043 229.972 60.9872H230.023C230.517 60.7997 231.012 60.6123 231.506 60.4248C231.881 60.2885 232.256 60.135 232.648 59.9987C233.398 59.726 234.182 59.4362 234.983 59.2316C235.222 59.1634 235.427 59.1805 235.58 59.2487C235.785 59.351 235.836 59.5725 235.853 59.6578C236.91 63.7316 237.199 64.4645 237.779 65.9134C238.29 67.2088 238.75 67.7713 239.381 67.8906C239.739 67.9588 240.08 67.8907 240.523 67.6691C240.557 67.6691 240.591 67.635 240.625 67.6179C240.642 67.6179 240.659 67.6008 240.677 67.5838L240.745 67.5498C240.881 67.4134 240.966 67.294 240.983 67.1747C240.983 67.0554 240.983 66.9531 240.983 66.8338C240.983 66.7827 240.983 66.7316 240.983 66.6804C240.983 66.4759 240.983 66.2543 240.983 66.0498C240.983 65.5214 240.983 64.9588 241.017 64.4304C241.017 64.1918 241.086 63.9702 241.154 63.7486C241.188 63.6463 241.205 63.5441 241.239 63.4418C241.324 63.0497 241.205 62.7259 240.898 62.5043L240.864 62.4872ZM235.563 56.351C235.563 56.4703 235.563 56.5726 235.546 56.6919C235.512 56.9817 235.324 57.1351 234.983 57.2203C233.995 57.4419 233.023 57.7145 232.103 58.0043C231.285 58.26 230.483 58.5669 229.819 58.8226C230.569 56.743 231.711 55.0725 233.279 53.6748C233.603 53.385 233.961 53.1464 234.336 52.8907C234.455 52.8225 234.608 52.7373 234.796 52.7373C234.881 52.7373 234.983 52.7373 235.086 52.7884C235.341 52.8907 235.478 53.0611 235.478 53.2998C235.478 53.6407 235.512 53.9816 235.512 54.3225V54.7657L235.563 56.3168V56.351Z" fill="#D1BADA"/>
<path d="M254.405 51.648C253.433 50.6423 251.916 50.1139 250.126 50.165C248.302 50.2162 247.075 51.0343 245.882 51.8354C245.797 51.8866 243.836 53.2332 242.66 55.5173C242.626 55.5684 242.37 56.0968 242.388 56.7786C242.388 57.3411 242.711 57.7501 243.274 57.8865C243.308 57.8865 243.342 57.9036 243.393 57.9036C243.751 57.9547 244.058 57.9035 244.297 57.7672C244.16 58.466 244.058 59.182 243.99 59.8809C243.888 60.7843 243.836 61.5001 243.836 61.8411C243.802 62.7104 243.802 63.4433 243.836 64.1081C243.871 64.8411 243.956 65.4547 244.075 66.0342C243.939 66.0513 243.819 66.1024 243.7 66.1365C243.41 66.2558 243.206 66.4433 243.069 66.716C242.848 67.1933 242.95 67.7046 243.342 68.0115C243.564 68.199 243.836 68.2843 244.177 68.2843C244.211 68.2843 244.245 68.2843 244.28 68.2843C244.961 68.2843 245.575 68.1138 246.052 67.9433C247.689 67.3979 248.405 66.9035 248.933 66.5456C254.371 62.7956 255.376 58.2275 255.41 58.04C255.683 56.6934 256.331 53.574 254.439 51.6138L254.405 51.648ZM252.172 59.6081C251.848 60.1877 251.49 60.7502 251.081 61.2786C250.211 62.4036 249.121 63.4093 247.791 64.3638C247.331 64.6877 246.802 65.0285 246.206 65.3695C246.172 64.9433 246.155 64.5343 246.155 64.1252V64.0569C246.155 63.2728 246.206 62.5229 246.274 61.7558C246.427 60.1195 246.717 58.3638 247.177 56.182C247.365 55.2786 247.552 54.4775 247.74 53.7445C247.74 53.6934 247.757 53.6934 247.774 53.6764C248.711 53.0968 249.547 52.79 250.382 52.7218C251.575 52.6195 252.53 53.1991 252.922 54.29C253.058 54.682 253.143 55.1081 253.16 55.5513C253.228 56.932 252.905 58.2615 252.172 59.6081Z" fill="#D1BADA"/>
<path d="M183.941 2.09717V68.0803H181.715V2.09717H183.941Z" fill="#FDF7FF"/>
<path d="M0 68.218C0.0681818 64.9283 0.630682 62.0306 1.70455 59.5079C2.77841 56.9852 4.19318 54.7181 5.96591 52.6897C7.73864 50.6613 9.71591 48.8204 11.9318 47.15C14.1477 45.4795 16.4148 43.8602 18.75 42.3261C21.0852 40.775 23.4034 39.2069 25.7046 37.5876C28.0057 35.9853 30.0682 34.2637 31.9092 32.4228C33.7501 30.5819 35.1137 28.7069 36.0341 26.7808C36.9546 24.8546 37.4148 22.5706 37.4148 19.9115C37.4148 17.7638 37.0228 15.8548 36.2387 14.1843C35.4546 12.5139 34.3808 11.0991 33.0172 9.92296C31.6535 8.74683 30.0853 7.87752 28.2785 7.26389C26.4716 6.6673 24.5626 6.36044 22.5512 6.36044C19.841 6.36044 17.5228 6.87182 15.5966 7.8775C13.6705 8.88317 12.1023 10.2468 10.9091 11.9514C9.71595 13.6559 8.84669 15.6161 8.30123 17.815C7.75578 20.0309 7.53411 22.3661 7.58525 24.8206H1.61934C1.55116 21.4115 1.94321 18.2751 2.79548 15.3945C3.64775 12.5138 4.96025 10.0422 6.73298 7.9627C8.50571 5.88317 10.7217 4.24684 13.4149 3.08775C16.091 1.91162 19.2444 1.33203 22.841 1.33203C25.7387 1.33203 28.4489 1.72408 30.9376 2.50817C33.4262 3.29225 35.608 4.46838 37.466 6.01951C39.3239 7.57064 40.7728 9.51388 41.8296 11.8491C42.8694 14.1843 43.3978 16.8945 43.3978 19.9967C43.3978 22.7751 42.9376 25.2978 42.0171 27.5649C41.0966 29.8319 39.8694 31.9285 38.3183 33.8205C36.7671 35.7125 35.0115 37.4682 33.0172 39.0705C31.0228 40.6728 28.9262 42.1728 26.7274 43.5705C25.1421 44.6444 23.2841 45.8204 21.1364 47.1159C18.9887 48.4113 16.9262 49.8432 14.9318 51.4284C12.9375 53.0136 11.199 54.7352 9.68191 56.5932C8.16487 58.4511 7.22729 60.4965 6.83525 62.6954H43.6706V68.184H0.0170621L0 68.218Z" fill="#FDF7FF"/>
<path d="M79.6376 4.53711C82.6376 6.65074 84.9728 9.34391 86.6432 12.6337C88.3137 15.9234 89.4557 19.5882 90.0523 23.6279C90.6489 27.6677 90.9558 31.6222 90.9558 35.4745C90.9558 39.3268 90.6489 43.3665 90.0523 47.4063C89.4557 51.446 88.3137 55.1108 86.6432 58.4005C84.9728 61.6903 82.6376 64.3664 79.6376 66.4459C76.6376 68.5254 72.7001 69.5652 67.8422 69.5652C62.9842 69.5652 59.1319 68.5254 56.0978 66.4459C53.0637 64.3664 50.7114 61.6733 49.041 58.4005C47.3705 55.1108 46.2285 51.4631 45.6319 47.4063C45.0353 43.3665 44.7285 39.412 44.7285 35.5597C44.7285 31.7075 45.0353 27.6677 45.6319 23.6279C46.2285 19.5882 47.3705 15.9234 49.041 12.6337C50.7114 9.34391 53.0637 6.65074 56.0978 4.53711C59.1319 2.42349 63.0353 1.3667 67.8422 1.3667C72.649 1.3667 76.6376 2.42349 79.6376 4.53711ZM58.7569 9.3098C56.4898 11.27 54.7682 13.7076 53.5921 16.6053C52.4159 19.503 51.6489 22.6734 51.2739 26.0825C50.8989 29.4916 50.7114 32.6109 50.7114 35.4574C50.7114 38.304 50.8989 41.5085 51.2739 44.8835C51.6489 48.2585 52.433 51.4118 53.5921 54.3607C54.7512 57.2925 56.4728 59.7471 58.7569 61.7073C61.0239 63.6676 64.0581 64.6391 67.8422 64.6391C71.6262 64.6391 74.6603 63.6676 76.9273 61.7073C79.1944 59.7471 80.916 57.3095 82.0921 54.3607C83.2683 51.4289 84.0353 48.2755 84.4103 44.8835C84.7853 41.5085 84.9728 38.3722 84.9728 35.4574C84.9728 32.5427 84.7853 29.4916 84.4103 26.0825C84.0353 22.6734 83.2512 19.52 82.0921 16.6053C80.916 13.7076 79.2114 11.27 76.9273 9.3098C74.6603 7.34958 71.6262 6.37804 67.8422 6.37804C64.0581 6.37804 61.0239 7.34958 58.7569 9.3098Z" fill="#FDF7FF"/>
<path d="M171.033 41.0305C170.879 39.6839 170.47 38.3714 169.737 37.1782C168.033 34.4339 165.101 32.9339 161.914 32.8998C158.965 32.8487 156.237 33.735 153.612 34.9793C148.72 37.2805 144.527 40.5533 140.726 44.3373C137.487 47.5589 134.641 51.0872 132.476 55.127C131.675 53.2861 131.283 51.6668 131.061 50.4907C129.152 39.9225 133.107 27.684 138.561 18.7351C141.084 14.5931 145.431 8.45679 150.442 7.12726C151.141 6.93976 152.01 7.12723 152.385 7.74086C152.59 8.06473 152.641 8.47386 152.658 8.84885C152.777 12.5136 150.442 16.7919 149.436 20.2862C149.027 21.718 148.635 23.167 148.311 24.6158C148.175 25.2635 148.004 25.9112 148.022 26.576C148.022 27.3089 148.073 28.0419 148.073 28.7749C148.175 29.1669 148.345 29.5248 148.567 29.8657C149.232 30.8714 150.391 31.5192 151.601 31.5533C153.203 31.5874 154.345 30.5476 155.181 29.2862C156.169 27.7862 157.056 26.218 158.129 24.7692C159.289 23.201 160.55 21.1555 163.073 17.0817C163.243 16.826 163.448 16.2976 163.584 15.6158C164.027 13.3829 162.135 11.3545 159.885 11.5931C159.561 11.6272 159.255 11.6954 158.811 11.7806C158.88 11.167 158.931 10.6215 158.982 10.0761C159.169 8.09881 159.05 6.15563 158.317 4.31473C157.243 1.65565 155.266 0.206866 152.385 0.0193666C150.578 -0.0999509 148.891 0.343187 147.272 1.04205C144.544 2.18409 142.209 3.90563 140.061 5.89994C133.448 12.1044 129.8 20.4055 129.357 21.343C126.05 28.3657 123.885 36.2577 123.595 44.0304C123.408 49.3656 124.414 54.9736 127.294 59.5418C127.277 59.5418 127.26 59.5076 127.243 59.5076C124.806 58.0247 120.254 55.7236 114.135 55.2975C109.72 54.9736 106.09 55.7577 103.737 56.4566C103.789 56.235 103.789 56.1668 103.823 56.1156C104.01 55.8429 104.215 55.5873 104.402 55.3145C109.533 48.5816 114.391 41.6442 118.448 34.2124C121.277 29.0306 123.715 23.6954 125.078 17.917C125.777 15.0022 126.135 12.0363 125.624 9.05339C125.146 6.20681 123.834 3.85453 121.192 2.42272C119.879 1.70681 118.448 1.40002 116.948 1.38298C114.152 1.33184 111.578 2.18405 109.107 3.34313C104.487 5.52494 100.516 8.61015 96.9363 12.1897C93.6636 15.4453 90.817 19.042 88.7204 23.201C87.8852 24.8544 87.2715 26.576 87.0158 28.4169C86.5215 31.8771 88.2772 34.9112 91.5499 36.1214C92.1976 36.3601 92.8965 36.5305 93.6976 36.7351C93.5101 36.7351 92.709 38.5248 92.6238 38.7464C92.351 39.4282 92.1806 40.2123 92.2318 40.9623C92.334 42.36 93.3908 43.5532 94.7886 43.8259C96.084 44.0645 97.0897 43.468 97.8567 42.4793C98.692 41.4055 99.3567 40.3316 100.362 39.36C102.493 37.3316 104.726 35.4055 106.925 33.4453C107.385 33.0362 107.914 32.6612 108.323 32.2009C110.044 30.2748 109.09 27.4282 106.55 26.8998C105.629 26.7123 104.828 27.0191 104.01 27.4112C101.436 28.6555 98.5897 30.3771 95.6579 30.5305C93.6295 30.6328 92.8965 28.9965 93.6976 27.2578C96.442 21.2749 101.317 16.2636 106.55 12.3773C109.396 10.2636 112.362 8.64424 115.857 7.92834C116.709 7.75788 117.664 7.77497 118.362 8.28633C121.499 10.6215 118.311 18.8374 117.306 21.5476C115.039 27.5987 111.868 33.2066 108.374 38.6271C103.056 46.8941 96.9874 54.6327 90.7658 62.2179C90.1521 62.9508 89.4363 63.5985 88.7885 64.2974C88.1919 64.9451 87.5101 65.5417 87.0499 66.2747C86.2146 67.5872 86.4363 69.2917 87.5613 70.3655C88.7034 71.4223 90.4249 71.5246 91.6692 70.6042C92.3169 70.1269 92.8624 69.5132 93.4419 68.9678C93.834 68.5928 94.1919 68.1496 94.6351 67.8258C101.027 63.3258 108.05 61.0417 115.925 61.9622C119.743 62.4054 123.05 63.9736 125.692 66.8202C125.999 67.1781 126.34 67.519 126.698 67.8428C127.499 68.5076 128.402 68.8315 129.459 68.6099C130.499 68.3883 131.283 67.7576 131.692 66.9054C131.879 66.5133 131.982 66.0701 131.999 65.5928C132.766 66.2065 133.789 66.9223 135.084 67.5701C135.595 67.8257 136.874 68.4223 138.578 68.8655C140.692 69.411 142.925 69.4791 145.09 69.2746C150.425 68.7632 154.959 66.3257 158.965 62.8826C158.965 62.8826 158.965 62.8826 158.982 62.8826C162.135 60.1724 164.879 56.9849 167.044 53.4395C169.277 49.8088 171.527 45.4793 171.05 41.0987L171.033 41.0305ZM164.112 43.8771C162.783 48.7009 159.391 52.8259 155.897 56.2691C152.607 59.5077 148.431 62.4053 143.675 62.6951C143.232 62.7292 142.772 62.7292 142.311 62.6951C140.249 62.6269 138.425 62.0986 136.84 61.127C137.453 59.5417 138.22 58.0077 139.124 56.5759C142.158 51.7861 146.078 47.8146 150.63 44.4396C153.442 42.3601 157.754 38.8828 161.521 39.2748C164.078 39.5475 164.692 41.7464 164.112 43.8771Z" fill="#D1BADA"/>
</svg>
